<svg enable-background="new 0 0 64 64" height="512" viewBox="0 0 64 64" width="512" xmlns="http://www.w3.org/2000/svg"><g id="Icons"><g><path d="m16 50c0-6.617 5.383-12 12-12 4.171 0 7.849 2.142 10 5.381v-23.381h-34v32h12.181c-.11-.652-.181-1.317-.181-2z" fill="#64c8f0"/></g><g><path d="m50 22v36h-8v-48h8v-2h-10v52h12v-36h6v28h2v-30z" fill="#505050"/></g><g><path d="m4 12h34v8h-34z" fill="#505050"/></g><g><path d="m4 12h4v40h-4z" fill="#46aad2"/></g><g><path d="m4 12h4v8h-4z" fill="#3c3c3c"/></g><g><path d="m44 4h12v8h-12z" fill="#3cc8b4"/></g><g><path d="m44 4h2v8h-2z" fill="#1eaa96"/></g><g><path d="m44 32h12v8h-12z" fill="#3cc8b4"/></g><g><path d="m44 32h2v8h-2z" fill="#1eaa96"/></g><g><path d="m44 44h12v8h-12z" fill="#3cc8b4"/></g><g><path d="m44 44h2v8h-2z" fill="#1eaa96"/></g><g><path d="m45.757 17.757h8.485v8.485h-8.485z" fill="#3cc8b4" transform="matrix(.707 -.707 .707 .707 -.912 41.799)"/></g><g><path d="m46 22 5-5-1-1-6 6 6 6 1-1z" fill="#1eaa96"/></g><g><path d="m10 24h10v2h-10z" fill="#f0f0f0"/></g><g><path d="m10 32h6v2h-6z" fill="#f0f0f0"/></g><g><path d="m18 32h6v2h-6z" fill="#f0f0f0"/></g><g><path d="m26 32h10v2h-10z" fill="#f0f0f0"/></g><g><path d="m16 28h12v2h-12z" fill="#f0f0f0"/></g><g><path d="m30 24h6v2h-6z" fill="#f0f0f0"/></g><g><path d="m10 28h4v2h-4z" fill="#f0f0f0"/></g><g><path d="m32 28h4v2h-4z" fill="#f0f0f0"/></g><g><path d="m22 24h4v2h-4z" fill="#f0f0f0" transform="matrix(-1 0 0 -1 48 50)"/></g><g><path d="m48 7.5h4v1h-4z" fill="#f0f0f0"/></g><g><path d="m48 21.5h4v1h-4z" fill="#f0f0f0"/></g><g><path d="m48 35.5h4v1h-4z" fill="#f0f0f0"/></g><g><path d="m48 47.5h4v1h-4z" fill="#f0f0f0"/></g><g><path d="m8 15.5h2v1h-2z" fill="#f0f0f0"/></g><g><path d="m12 15.5h2v1h-2z" fill="#f0f0f0"/></g><g><path d="m16 15.5h2v1h-2z" fill="#f0f0f0"/></g><g><circle cx="28" cy="50" fill="#fab400" r="10"/></g><g><path d="m20 50c0-5.185 3.947-9.448 9-9.95-.329-.032-.662-.05-1-.05-5.523 0-10 4.477-10 10s4.477 10 10 10c.338 0 .671-.018 1-.05-5.053-.502-9-4.765-9-9.95z" fill="#dc9600"/></g><g><path d="m35 51v-2h-2.12c-.13-.635-.366-1.232-.712-1.754l1.488-1.488-1.414-1.414-1.488 1.488c-.523-.346-1.119-.587-1.754-.718v-2.114h-2v2.114c-.635.131-1.231.371-1.754.718l-1.488-1.488-1.414 1.414 1.488 1.488c-.346.522-.582 1.119-.712 1.754h-2.12v2h2.12c.13.635.366 1.232.712 1.754l-1.488 1.488 1.414 1.414 1.488-1.488c.523.346 1.119.587 1.754.718v2.114h2v-2.114c.635-.131 1.231-.371 1.754-.718l1.488 1.488 1.414-1.414-1.488-1.488c.346-.523.582-1.119.712-1.754zm-7 2c-1.654 0-3-1.346-3-3s1.346-3 3-3 3 1.346 3 3-1.346 3-3 3z" fill="#f0f0f0"/></g></g></svg>