<svg id="Layer_1" enable-background="new 0 0 400 400" height="512" viewBox="0 0 400 400" width="512" xmlns="http://www.w3.org/2000/svg"><g><g><g clip-rule="evenodd" fill-rule="evenodd"><g fill="#424242"><path d="m170.2 273.6c4.2 0 7.7-1.6 10.4-4.8s4-7.3 4-12.3-1.4-9.2-4-12.4c-2.7-3.2-6.2-4.8-10.4-4.8s-7.7 1.6-10.4 4.8-4.1 7.3-4.1 12.2c0 5.1 1.4 9.3 4 12.5 2.7 3.2 6.2 4.8 10.5 4.8z"/><path d="m205.4 255.3h11.7c5.9 0 8.8-2.6 8.8-7.7 0-5-3-7.6-8.8-7.6h-11.7z"/><path d="m280.7 272.9h4.6c3.9 0 6.2 0 7.1-.1 2.7-.3 4.9-1.1 6.5-2.3 3.5-2.7 5.3-7.4 5.3-14 0-5.4-1.1-9.5-3.4-12.3s-5.6-4.1-10.2-4.1h-10.1z"/><path d="m276 205.5c4.2 0 7.7-1.6 10.4-4.8s4-7.3 4-12.3-1.4-9.2-4-12.4c-2.7-3.2-6.2-4.8-10.4-4.8s-7.7 1.6-10.4 4.8-4.1 7.3-4.1 12.2c0 5.1 1.4 9.3 4 12.5 2.7 3.2 6.2 4.8 10.5 4.8z"/><path d="m15.9 326.1c0 6.1 5 11.1 11.1 11.1h346.4c6.1 0 11.1-5 11.1-11.1v-211.9h-368.6zm253.1-49.3c-.2.3-.7 1-2.8 1h-21.8c-.8 0-1.9-.1-2.6-.9-.7-.7-.9-1.8-.9-2.6v-36.3c0-2.2.8-2.8 1.1-3 .6-.4 1.5-.5 1.7-.5s1.1 0 1.7.5c.3.2 1.1.8 1.1 3v34.6h19.7c2.1 0 2.6.8 2.8 1 .4.6.4 1.4.4 1.5 0 .6-.1 1.2-.4 1.7zm38.8-32c1.5 3.3 2.3 7.2 2.3 11.6 0 4.1-.7 7.8-2.1 11s-3.4 5.7-5.9 7.4c-2.7 1.8-6 2.8-9.9 2.9-2.4.1-4.6.1-6.8.1h-6.9c-.8 0-1.9-.1-2.6-.9-.7-.7-.9-1.8-.9-2.6v-35.9c0-.8.1-1.9.9-2.6.7-.7 1.8-.9 2.6-.9h7.7c5.2 0 8.7.2 10.5.6 5.1 1.4 8.8 4.4 11.1 9.3zm-46.4-72.4c3.7-4 8.6-6.1 14.5-6.1 6 0 10.9 2 14.6 6.1 3.7 4 5.6 9.4 5.6 15.9s-1.9 11.9-5.6 15.9c-3.7 4.1-8.6 6.1-14.5 6.1-5.5 0-10.1-1.7-13.8-5.2-4.3-4-6.5-9.8-6.5-17.2.1-6.2 2-11.5 5.7-15.5zm-36.7-2.4c0-2.2.8-2.8 1.1-3 .6-.4 1.5-.5 1.7-.5s1.1 0 1.7.5c.3.2 1.1.8 1.1 3v34.6h19.7c2.1 0 2.6.8 2.8 1 .4.6.4 1.4.4 1.5 0 .5-.1 1.1-.4 1.6-.2.3-.7 1-2.8 1h-21.8c-.8 0-1.9-.1-2.6-.9-.7-.7-.9-1.8-.9-2.6zm2.8 67.8c2.7 2.1 4.1 5.2 4.1 9.3 0 4-1.3 6.9-4 8.8l-2.3 1.6 2.2 1.7c.5.4.8.7 1.1 1.2.8 1.3 1.5 3.6 2 7 .3 1.7.5 3.2.8 4.5.4 1.9.6 3.1.6 3.4 0 3.1-2 3.1-2.7 3.1-1.3 0-2.3-.8-3-2.5-.4-1-.9-3.4-1.5-7.4-.4-3.1-1-5.2-1.8-6.2-1.1-1.4-2.8-2.2-5.3-2.2h-12.3v14.8c0 2.2-.8 2.8-1.1 3-.6.4-1.5.5-1.7.5s-1.1 0-1.7-.5c-.3-.2-1.1-.8-1.1-3v-36.3c0-.8.1-1.9.9-2.6.7-.7 1.8-.9 2.6-.9h8.3c4.1 0 6.9.1 8.2.2 3.4.3 6 1.2 7.7 2.5zm-36.9-67.8c0-2.2.8-2.8 1.1-3 .6-.4 1.5-.5 1.7-.5s1.1 0 1.7.5c.3.2 1.1.8 1.1 3v34.6h19.7c2.1 0 2.6.8 2.8 1 .4.6.4 1.4.4 1.5 0 .5-.1 1.1-.4 1.6-.2.3-.7 1-2.8 1h-21.9c-.8 0-1.9-.1-2.6-.9-.7-.7-.9-1.8-.9-2.6zm-37.5.4c0-.8.1-1.9.9-2.6.7-.7 1.8-.9 2.6-.9h22.4c1.9 0 2.4.7 2.6 1 .3.5.4 1.1.4 1.5s-.1 1.1-.4 1.5c-.2.2-.7 1-2.6 1h-20.3v13.5h19.3c1.9 0 2.4.7 2.5.9.4.6.4 1.3.4 1.4 0 .4-.1 1-.4 1.5-.2.2-.6.9-2.5.9h-19.3v14.5h21.1c2 0 2.5.7 2.6 1 .3.5.4 1.1.4 1.5s-.1 1.1-.4 1.5c-.2.2-.7 1-2.6 1h-23.3c-.8 0-1.9-.1-2.6-.9-.7-.7-.9-1.8-.9-2.6zm2.5 70.1c3.7-4 8.6-6.1 14.5-6.1 6 0 10.9 2 14.6 6.1 3.7 4 5.6 9.4 5.6 15.9s-1.9 11.9-5.6 15.9c-3.7 4.1-8.6 6.1-14.5 6.1-5.5 0-10.1-1.7-13.8-5.2-4.3-4-6.5-9.8-6.5-17.2.1-6.2 2-11.5 5.7-15.5zm-46-70.5c0-2.2.8-2.8 1.1-3 .6-.4 1.5-.5 1.7-.5s1.1 0 1.7.5c.3.2 1.1.8 1.1 3v15.5h22.3v-15.5c0-2.2.8-2.8 1.1-3 .6-.4 1.5-.5 1.7-.5s1.1 0 1.7.5c.3.2 1.1.8 1.1 3v36.8c0 2.2-.8 2.8-1.1 3-.6.4-1.5.5-1.7.5s-1.1 0-1.7-.5c-.3-.2-1.1-.8-1.1-3v-16.3h-22.3v16.3c0 2.2-.8 2.8-1.1 3-.6.4-1.5.5-1.7.5s-1.1 0-1.7-.5c-.3-.2-1.1-.8-1.1-3zm-18.6 65.5c.5-.5 1.2-.7 2-.7 1.4 0 2.4.8 2.9 2.4l9.9 32.3 1.8-6.8 6.7-24.7c.4-1.5 1.2-3.3 2.9-3.3h1.3c1.7 0 2.5 1.8 2.9 3.2l9.2 31.5 9.4-32.2c.6-2.1 1.9-2.5 2.8-2.5.8 0 1.4.2 1.9.7s.8 1.1.8 1.8c0 .5-.1 1-.3 1.5l-11 36.3c-.5 1.5-1.4 3.3-3.2 3.3h-.6c-1.4 0-2.3-.5-2.6-1.6l-9.8-33.4-1.9 7-7.1 26.3c-.4 1.7-2 1.7-2.5 1.7h-1c-1.3 0-2.2-.5-2.5-1.6l-12.4-37.9c-.2-.6-.3-1.2-.3-1.6 0-.6.2-1.3.7-1.7z"/></g><path d="m384.6 75.4c0-6.1-5-11.1-11.1-11.1h-346.4c-6.1 0-11.1 5-11.1 11.1v30.7h368.6zm-331 17.3c-4.1 0-7.5-3.3-7.5-7.5 0-4.1 3.3-7.5 7.5-7.5 4.1 0 7.5 3.3 7.5 7.5-.1 4.1-3.4 7.5-7.5 7.5zm31.2 0c-4.1 0-7.5-3.3-7.5-7.5 0-4.1 3.3-7.5 7.5-7.5s7.5 3.3 7.5 7.5c0 4.1-3.3 7.5-7.5 7.5zm31.3 0c-4.1 0-7.5-3.3-7.5-7.5 0-4.1 3.3-7.5 7.5-7.5 4.1 0 7.5 3.3 7.5 7.5 0 4.1-3.4 7.5-7.5 7.5zm238.3-3.5h-151.1c-2.2 0-4.1-1.8-4.1-4.1 0-2.2 1.8-4.1 4.1-4.1h151.2c2.2 0 4.1 1.8 4.1 4.1-.1 2.3-1.9 4.1-4.2 4.1z" fill="#64b5f6"/></g></g></g></svg>