<svg id="Layer_5" enable-background="new 0 0 62 62" height="512" viewBox="0 0 62 62" width="512" xmlns="http://www.w3.org/2000/svg"><g><g><g><path d="m27 1c1.66 0 3 1.34 3 3 0 .55-.45 1-1 1h-1-4-4-4-1c-.55 0-1-.45-1-1 0-.83.34-1.58.88-2.12s1.29-.88 2.12-.88z" fill="#a0d468"/></g><g><path d="m16 5h12v4h-12z" fill="#b4dd7f"/></g><g><path d="m35 15h-26l7-6h4 4 4z" fill="#e6e9ed"/></g><g><path d="m35 49v8c0 2.21-1.79 4-4 4h-18c-2.21 0-4-1.79-4-4v-8z" fill="#e6e9ed"/></g><g><path d="m9 15h26v14h-26z" fill="#e6e9ed"/></g><g><path d="m57 17 4 20h-14v-11c0-1.66-1.34-3-3-3h-2c-.83 0-1.58-.34-2.12-.88s-.88-1.29-.88-2.12c0-1.66 1.34-3 3-3z" fill="#e6e9ed"/></g><g><path d="m39.88 22.12c.54.54 1.29.88 2.12.88h2c1.66 0 3 1.34 3 3 0 .83-.34 1.58-.88 2.12s-1.29.88-2.12.88h-5v-9c0 .83.34 1.58.88 2.12z" fill="#ffeaa7"/></g><g><path d="m47 37v9c0 1.66-1.34 3-3 3h-9-26-8l4-20h4 26 4 5c.83 0 1.58-.34 2.12-.88s.88-1.29.88-2.12z" fill="#f0d0b4"/></g><g><path d="m9 33h18v12h-18z" fill="#fcd770"/></g></g><g><path d="m57.98 16.804c-.093-.468-.504-.804-.98-.804h-15c-2.206 0-4 1.794-4 4v8h-2v-13.46l-7-6v-2.54c1.103 0 2-.897 2-2 0-2.206-1.794-4-4-4h-10c-2.206 0-4 1.794-4 4 0 1.103.897 2 2 2v2.54l-7 6v13.46h-3c-.477 0-.887.336-.98.804l-4 20c-.059.294.018.599.207.83.19.232.473.366.773.366h7v7c0 2.757 2.243 5 5 5h18c2.757 0 5-2.243 5-5v-7h8c2.206 0 4-1.794 4-4v-8h13c.3 0 .583-.134.773-.366.189-.231.266-.536.207-.83zm-30.35-6.804 4.667 4h-20.594l4.667-4zm-4.63-4v2h-2v-2zm4 2h-2v-2h2zm-10-6h10c1.103 0 2 .897 2.001 2h-14.001c0-1.103.897-2 2-2zm2 4v2h-2v-2zm-9 10h24v12h-24zm24 41c0 1.654-1.346 3-3 3h-18c-1.654 0-3-1.346-3-3v-7h24zm12-11c0 1.103-.897 2-2 2h-41.78l3.6-18h38.18c.728 0 1.411-.195 2-.537zm-2-18h-4v-4.556c.59.344 1.268.556 2 .556h2c1.103 0 2 .897 2 2s-.898 2-2 2zm4 8v-10c0-2.206-1.794-4-4-4h-2c-1.103 0-2-.897-2-2s.897-2 2-2h14.18l3.6 18z"/><path d="m8 46h20v-14h-20zm2-12h16v10h-16z"/><path d="m30 32h2v2h-2z"/><path d="m34 32h10v2h-10z"/><path d="m30 36h14v2h-14z"/><path d="m30 40h14v2h-14z"/><path d="m30 44h4v2h-4z"/><path d="m36 44h8v2h-8z"/><path d="m50 32h6v2h-6z"/><path d="m50 28h6v2h-6z"/><path d="m50 24h5v2h-5z"/><path d="m50 20h5v2h-5z"/></g></g></svg>