<svg id="line_color" height="512" viewBox="0 0 128 128" width="512" xmlns="http://www.w3.org/2000/svg" data-name="line color"><circle cx="93.558" cy="110.254" fill="#ffcdbe" r="5.573"/><circle cx="93.558" cy="72.372" fill="#ffcdbe" r="5.573"/><rect fill="#76c1f4" height="13.309" rx="3" width="44.808" x="71.096" y="28.277"/><rect fill="#ffcdbe" height="13.309" rx="3" width="44.808" x="71.096" y="84.745"/><path d="m53.424 28.277h-9.75a3 3 0 0 1 -3-3v-9.75a3 3 0 0 0 -3-3h-7.308a3 3 0 0 0 -3 3v9.75a3 3 0 0 1 -3 3h-9.75a3 3 0 0 0 -3 3v7.308a3 3 0 0 0 3 3h9.75a3 3 0 0 1 3 3v9.75a3 3 0 0 0 3 3h7.308a3 3 0 0 0 3-3v-9.75a3 3 0 0 1 3-3h9.75a3 3 0 0 0 3-3v-7.308a3 3 0 0 0 -3-3z" fill="#ff5f76"/><path d="m52.446 78.742-5.168-5.168a3 3 0 0 0 -4.243 0l-6.894 6.894a3 3 0 0 1 -4.242 0l-6.899-6.894a3 3 0 0 0 -4.242 0l-5.168 5.168a3 3 0 0 0 0 4.243l6.894 6.894a3 3 0 0 1 0 4.242l-6.894 6.894a3 3 0 0 0 0 4.243l5.168 5.168a3 3 0 0 0 4.242 0l6.9-6.894a3 3 0 0 1 4.242 0l6.894 6.894a3 3 0 0 0 4.243 0l5.168-5.168a3 3 0 0 0 0-4.243l-6.894-6.894a3 3 0 0 1 0-4.242l6.894-6.894a3 3 0 0 0 -.001-4.243z" fill="#f7ca72"/><g fill="#3b4456"><path d="m93.559 102.681a7.582 7.582 0 0 0 -7.574 7.573c.356 10.022 14.792 10.02 15.146 0a7.581 7.581 0 0 0 -7.572-7.573zm0 11.146a3.573 3.573 0 0 1 0-7.146 3.573 3.573 0 0 1 0 7.146z"/><path d="m101.131 72.372a7.581 7.581 0 0 0 -7.572-7.572c-10.024.356-10.021 14.791 0 15.145a7.581 7.581 0 0 0 7.572-7.573zm-11.146 0a3.573 3.573 0 0 1 7.146 0 3.573 3.573 0 0 1 -7.146 0z"/><path d="m112.9 26.276h-38.8a5.006 5.006 0 0 0 -5 5v7.309a5.006 5.006 0 0 0 5 5h38.8a5.006 5.006 0 0 0 5-5v-7.309a5.006 5.006 0 0 0 -5-5zm1 12.309a1 1 0 0 1 -1 1h-38.8a1 1 0 0 1 -1-1v-7.309a1 1 0 0 1 1-1h38.8a1 1 0 0 1 1 1z"/><path d="m112.9 82.745h-38.8a5.006 5.006 0 0 0 -5 5v7.308a5.006 5.006 0 0 0 5 5h38.8a5.006 5.006 0 0 0 5-5v-7.308a5.006 5.006 0 0 0 -5-5zm1 12.308a1 1 0 0 1 -1 1h-38.8a1 1 0 0 1 -1-1v-7.308a1 1 0 0 1 1-1h38.8a1 1 0 0 1 1 1z"/><path d="m53.424 26.276h-9.75a1 1 0 0 1 -1-1v-9.749a5.006 5.006 0 0 0 -5-5h-7.309a5.006 5.006 0 0 0 -5 5v9.749a1 1 0 0 1 -1 1h-9.749a5.006 5.006 0 0 0 -5 5v7.309a5.006 5.006 0 0 0 5 5h9.749a1 1 0 0 1 1 1v9.75a5.006 5.006 0 0 0 5 5h7.309a5.006 5.006 0 0 0 5-5v-9.75a1 1 0 0 1 1-1h9.75a5.006 5.006 0 0 0 5-5v-7.309a5.006 5.006 0 0 0 -5-5zm1 12.309a1 1 0 0 1 -1 1h-9.75a5.006 5.006 0 0 0 -5 5v9.75a1 1 0 0 1 -1 1h-7.309a1 1 0 0 1 -1-1v-9.75a5.006 5.006 0 0 0 -5-5h-9.749a1 1 0 0 1 -1-1v-7.309a1 1 0 0 1 1-1h9.749a5.006 5.006 0 0 0 5-5v-9.749a1 1 0 0 1 1-1h7.309a1 1 0 0 1 1 1v9.749a5.006 5.006 0 0 0 5 5h9.75a1 1 0 0 1 1 1z"/><path d="m53.86 84.4a5.006 5.006 0 0 0 0-7.07l-5.168-5.169a5.006 5.006 0 0 0 -7.071 0l-6.893 6.894a1 1 0 0 1 -1.416 0l-6.893-6.895a5.006 5.006 0 0 0 -7.071 0l-5.168 5.168a5.022 5.022 0 0 0 0 7.07l6.894 6.9a1 1 0 0 1 0 1.414l-6.894 6.888a5.023 5.023 0 0 0 0 7.071l5.168 5.169a5.006 5.006 0 0 0 7.071 0l6.893-6.894a1 1 0 0 1 1.416 0l6.893 6.895a5.007 5.007 0 0 0 7.071 0l5.169-5.168a5.006 5.006 0 0 0 0-7.07l-6.894-6.9a1 1 0 0 1 0-1.414zm-9.722 11.135 6.894 6.9a1 1 0 0 1 0 1.414l-5.168 5.168a1 1 0 0 1 -1.415 0l-6.893-6.895a5.008 5.008 0 0 0 -7.072 0l-6.893 6.894a1 1 0 0 1 -1.415 0l-5.168-5.168a1 1 0 0 1 0-1.414l6.894-6.9a5 5 0 0 0 0-7.07l-6.894-6.9a1 1 0 0 1 0-1.414l5.168-5.168a1 1 0 0 1 1.415 0l6.893 6.895a5.008 5.008 0 0 0 7.072 0l6.893-6.894a1 1 0 0 1 1.415 0l5.167 5.167a1 1 0 0 1 0 1.415l-6.894 6.894a5.022 5.022 0 0 0 .001 7.076z"/></g></svg>