<svg id="Layer_2" height="512" viewBox="0 0 512 512" width="512" xmlns="http://www.w3.org/2000/svg" xmlns:xlink="http://www.w3.org/1999/xlink" data-name="Layer 2"><linearGradient id="linear-gradient" gradientUnits="userSpaceOnUse" x1="43.93" x2="468.07" y1="43.93" y2="468.07"><stop offset="0" stop-color="#64b5f6"/><stop offset="1" stop-color="#1976d2"/></linearGradient><linearGradient id="linear-gradient-2" gradientUnits="userSpaceOnUse" x1="210.27" x2="465.96" y1="214.47" y2="470.16"><stop offset="0" stop-opacity=".35"/><stop offset="1" stop-opacity="0"/></linearGradient><g id="Icon"><g id="Semicolon"><rect id="Background" fill="url(#linear-gradient)" height="512" rx="150" width="512"/><path d="m289.02 283.48-63.61 63.61 27.06 27.06-27.54 6.53 131.32 131.32h5.75c42.83 0 81.47-17.96 108.79-46.75zm-2.98-144.78-61.11 61.11 254.95 254.95c19.61-24.88 31.51-56.13 32.1-90.13z" fill="url(#linear-gradient-2)"/><path d="m212.32 169.35c0-6.01 1.13-11.65 3.38-16.92 2.26-5.26 5.33-9.84 9.23-13.74s8.48-6.97 13.74-9.23 10.9-3.38 16.92-3.38 11.45 1.13 16.71 3.38c5.26 2.26 9.84 5.33 13.74 9.23s6.97 8.48 9.23 13.74 3.38 10.9 3.38 16.92-1.13 11.62-3.38 16.82c-2.26 5.2-5.33 9.74-9.23 13.64s-8.48 6.97-13.74 9.23-10.84 3.38-16.71 3.38-11.66-1.13-16.92-3.38c-5.26-2.26-9.84-5.33-13.74-9.23s-6.97-8.44-9.23-13.64c-2.26-5.19-3.38-10.8-3.38-16.82zm87.36 145.2c0 5.61-1.1 11.83-3.28 18.66-2.19 6.84-4.96 13.61-8.31 20.3-3.35 6.7-7.01 12.92-10.97 18.66-3.97 5.74-7.79 10.32-11.48 13.74l-41.63-4.92c4.37-3.42 8.37-7.25 12-11.48 3.62-4.24 7-8.68 10.15-13.33-5.06-.41-9.67-1.78-13.84-4.1-4.17-2.33-7.73-5.33-10.66-9.02-2.94-3.69-5.23-7.96-6.87-12.82-1.64-4.85-2.46-10.08-2.46-15.69 0-4.65.75-9.47 2.26-14.46 1.5-4.99 3.93-9.6 7.28-13.84s7.83-7.72 13.43-10.46c5.6-2.73 12.51-4.1 20.71-4.1 7.38 0 13.84 1.03 19.38 3.08s10.08 4.96 13.64 8.72c3.55 3.76 6.22 8.27 8 13.54 1.78 5.26 2.67 11.11 2.67 17.53z" fill="#fff"/></g></g></svg>