<svg height="512" viewBox="0 0 64 64" width="512" xmlns="http://www.w3.org/2000/svg"><g id="Fill_Outline" data-name="Fill Outline"><g id="Stroke_copy" data-name="Stroke copy"><path d="m26 33h16v8h-16z" fill="#e9f1f2"/><path d="m42 39v2h-16v-8h3a2.015 2.015 0 0 0 2 2h5a2.006 2.006 0 0 1 2 2 2.015 2.015 0 0 0 2 2z" fill="#d0d8da"/><path d="m22 41h-4v-11l4-3z" fill="#f9e109"/><path d="m26 41h-4v-11l4-3z" fill="#f9e109"/><path d="m34 33h-4l1-10h3z" fill="#84d2f4"/><path d="m42 33h-4l1-10h3z" fill="#84d2f4"/><path d="m26 37h4v4h-4z" fill="#84d2f4"/><path d="m42 30.82v2.18h-4l1-10h1v5a2.968 2.968 0 0 0 2 2.82z" fill="#57b7eb"/><path d="m34 30.82v2.18h-4l1-10h1v5a2.968 2.968 0 0 0 2 2.82z" fill="#57b7eb"/><path d="m30 37v4h-1v-2a1 1 0 0 0 -1-1h-2v-1z" fill="#57b7eb"/><path d="m26 39v2h-4v-11l2-1.5v8.5a2.006 2.006 0 0 0 2 2z" fill="#fcbc04"/><path d="m22 39v2h-4v-11l2-1.5v8.5a2.006 2.006 0 0 0 2 2z" fill="#fcbc04"/><path d="m16.928 53a6.065 6.065 0 0 0 -.1-1.094l2.032-1.174-2-3.464-2.032 1.174a5.981 5.981 0 0 0 -1.9-1.093v-2.349h-4v2.349a5.987 5.987 0 0 0 -1.9 1.093l-2.028-1.174-2 3.464 2.033 1.174a5.752 5.752 0 0 0 0 2.188l-2.033 1.174 2 3.464 2.033-1.174a5.987 5.987 0 0 0 1.9 1.093v2.349h4v-2.349a5.965 5.965 0 0 0 1.895-1.093l2.033 1.174 2-3.464-2.032-1.174a6.065 6.065 0 0 0 .099-1.094zm-6 2a2 2 0 1 1 2-2 2 2 0 0 1 -2 2z" fill="#f9e109"/><g fill="#84d2f4"><circle cx="48" cy="30" r="2"/><circle cx="30" cy="47" r="2"/><circle cx="32" cy="54" r="2"/><circle cx="52" cy="39" r="2"/><circle cx="13" cy="26" r="2"/></g><path d="m49.82 30.82a2 2 0 1 1 -2.64-2.64 1.891 1.891 0 0 0 -.18.82 2.006 2.006 0 0 0 2 2 1.891 1.891 0 0 0 .82-.18z" fill="#57b7eb"/><path d="m31.82 47.82a2 2 0 1 1 -2.64-2.64 1.891 1.891 0 0 0 -.18.82 2.006 2.006 0 0 0 2 2 1.891 1.891 0 0 0 .82-.18z" fill="#57b7eb"/><path d="m33.82 54.82a2 2 0 1 1 -2.64-2.64 1.891 1.891 0 0 0 -.18.82 2.006 2.006 0 0 0 2 2 1.891 1.891 0 0 0 .82-.18z" fill="#57b7eb"/><path d="m53.82 39.82a2 2 0 1 1 -2.64-2.64 1.891 1.891 0 0 0 -.18.82 2.006 2.006 0 0 0 2 2 1.891 1.891 0 0 0 .82-.18z" fill="#57b7eb"/><path d="m14.82 26.82a2 2 0 1 1 -2.64-2.64 1.891 1.891 0 0 0 -.18.82 2.006 2.006 0 0 0 2 2 1.891 1.891 0 0 0 .82-.18z" fill="#57b7eb"/><path d="m15 57a9.993 9.993 0 0 1 -9.99-9.73h-.01l-2 3.46 2.03 1.18a5.99 5.99 0 0 0 0 2.18l-2.03 1.18 2 3.46 2.03-1.17a6.188 6.188 0 0 0 1.9 1.09v2.35h4v-2.35a6.026 6.026 0 0 0 1.89-1.09l2.04 1.17 1.3-2.24a10.011 10.011 0 0 1 -3.16.51z" fill="#fcbc04"/><path d="m16.928 11a6.065 6.065 0 0 0 -.1-1.094l2.032-1.174-2-3.464-2.036 1.174a5.981 5.981 0 0 0 -1.9-1.093v-2.349h-4v2.349a5.987 5.987 0 0 0 -1.9 1.093l-2.024-1.174-2 3.464 2.033 1.174a5.752 5.752 0 0 0 0 2.188l-2.033 1.174 2 3.464 2.033-1.174a5.987 5.987 0 0 0 1.9 1.093v2.349h4v-2.349a5.965 5.965 0 0 0 1.895-1.093l2.033 1.174 2-3.464-2.032-1.174a6.065 6.065 0 0 0 .099-1.094zm-6 2a2 2 0 1 1 2-2 2 2 0 0 1 -2 2z" fill="#f9e109"/><path d="m15 15a9.993 9.993 0 0 1 -9.99-9.73h-.01l-2 3.46 2.03 1.18a5.99 5.99 0 0 0 0 2.18l-2.03 1.18 2 3.46 2.03-1.17a6.188 6.188 0 0 0 1.9 1.09v2.35h4v-2.35a6.026 6.026 0 0 0 1.89-1.09l2.04 1.17 1.3-2.24a10.011 10.011 0 0 1 -3.16.51z" fill="#fcbc04"/><path d="m59.072 53a5.976 5.976 0 0 0 -.105-1.094l2.033-1.174-2-3.464-2.033 1.174a5.987 5.987 0 0 0 -1.895-1.093v-2.349h-4v2.349a5.965 5.965 0 0 0 -1.9 1.093l-2.033-1.174-2 3.464 2.032 1.174a5.806 5.806 0 0 0 0 2.188l-2.032 1.174 2 3.464 2.033-1.174a5.965 5.965 0 0 0 1.9 1.093v2.349h4v-2.349a5.987 5.987 0 0 0 1.895-1.093l2.033 1.174 2-3.464-2.033-1.174a5.976 5.976 0 0 0 .105-1.094zm-6 2a2 2 0 1 1 2-2 2 2 0 0 1 -2 2z" fill="#f9e109"/><path d="m57.144 57a9.993 9.993 0 0 1 -9.99-9.73h-.01l-2 3.46 2.03 1.18a5.991 5.991 0 0 0 0 2.18l-2.03 1.18 2 3.46 2.03-1.17a6.188 6.188 0 0 0 1.9 1.09v2.35h4v-2.35a6.026 6.026 0 0 0 1.89-1.09l2.036 1.17 1.3-2.24a10.011 10.011 0 0 1 -3.156.51z" fill="#fcbc04"/><path d="m59.072 11a5.976 5.976 0 0 0 -.105-1.094l2.033-1.174-2-3.464-2.033 1.174a5.987 5.987 0 0 0 -1.895-1.093v-2.349h-4v2.349a5.965 5.965 0 0 0 -1.9 1.093l-2.028-1.174-2 3.464 2.032 1.174a5.806 5.806 0 0 0 0 2.188l-2.032 1.174 2 3.464 2.033-1.174a5.965 5.965 0 0 0 1.9 1.093v2.349h4v-2.349a5.987 5.987 0 0 0 1.895-1.093l2.028 1.174 2-3.464-2.033-1.174a5.976 5.976 0 0 0 .105-1.094zm-6 2a2 2 0 1 1 2-2 2 2 0 0 1 -2 2z" fill="#f9e109"/><path d="m57.144 15a9.993 9.993 0 0 1 -9.99-9.73h-.01l-2 3.46 2.03 1.18a5.99 5.99 0 0 0 0 2.18l-2.03 1.18 2 3.46 2.03-1.17a6.188 6.188 0 0 0 1.9 1.09v2.35h4v-2.35a6.026 6.026 0 0 0 1.89-1.09l2.036 1.17 1.3-2.24a10.011 10.011 0 0 1 -3.156.51z" fill="#fcbc04"/></g><g id="Outline_copy" fill="#323232" data-name="Outline copy"><path d="m39 22a1 1 0 0 0 -.995.9l-.905 9.1h-2.1v-9a1 1 0 0 0 -1-1h-3a1 1 0 0 0 -1 .9l-.9 9.1h-2.1v-5a1 1 0 0 0 -1.6-.8l-2.4 1.8v-1a1 1 0 0 0 -1.6-.8l-4 3a1 1 0 0 0 -.4.8v11a1 1 0 0 0 2 0v-10.5l2-1.5v12a1 1 0 0 0 1 1h20a1 1 0 0 0 1-1v-4a1 1 0 0 0 -1-1h-2a1 1 0 0 0 0 2h1v2h-10v-3a1 1 0 0 0 -1-1h-3v-2h15a1 1 0 0 0 1-1v-10a1 1 0 0 0 -1-1zm-16 8.5 2-1.5v11h-2zm6 7.5v2h-2v-2zm12-14v3h-1.4l.3-3zm-8 0v3h-1.395l.3-3zm-1.895 8 .3-3h1.595v3zm8 0 .3-3h1.595v3z"/><path d="m34 36a1 1 0 0 0 0 2h2a1 1 0 0 0 0-2z"/><path d="m35.806 12h-.806a1 1 0 0 0 0 2h.806a1.2 1.2 0 0 1 1.194 1.193v.226a3.187 3.187 0 0 0 2.184 3.029 1.193 1.193 0 0 1 .816 1.133v.419a1 1 0 0 0 2 0v-.419a3.187 3.187 0 0 0 -2.184-3.029 1.193 1.193 0 0 1 -.816-1.133v-.226a3.2 3.2 0 0 0 -3.194-3.193z"/><path d="m25.806 12h-.806a1 1 0 0 0 0 2h.806a1.2 1.2 0 0 1 1.194 1.193v.226a3.187 3.187 0 0 0 2.184 3.029 1.193 1.193 0 0 1 .816 1.133v.419a1 1 0 0 0 2 0v-.419a3.187 3.187 0 0 0 -2.184-3.029 1.193 1.193 0 0 1 -.816-1.133v-.226a3.2 3.2 0 0 0 -3.194-3.193z"/><path d="m33 17a4 4 0 0 0 4 4 1 1 0 0 0 0-2 2 2 0 0 1 -2-2 1 1 0 0 0 -2 0z"/><path d="m23 17a4 4 0 0 0 4 4 1 1 0 0 0 0-2 2 2 0 0 1 -2-2 1 1 0 0 0 -2 0z"/><path d="m19.356 54.4-1.456-.837c.016-.19.024-.378.024-.563s-.008-.373-.024-.563l.761-.437h5.618l.772 2.316a1 1 0 0 0 .949.684h3.184a3 3 0 1 0 0-2h-2.463l-.772-2.316a1 1 0 0 0 -.949-.684h-5.411l-1.866-3.232a1 1 0 0 0 -.608-.466 1.011 1.011 0 0 0 -.759.1l-1.454.84a6.962 6.962 0 0 0 -.974-.56v-1.682a1 1 0 0 0 -1-1h-1.928v-10.465l2.555-1.7a1 1 0 0 0 .445-.835v-2.184a3 3 0 1 0 -2 0v1.649l-2.555 1.7a1 1 0 0 0 -.445.835v11h-.072a1 1 0 0 0 -1 1v1.681a6.9 6.9 0 0 0 -.973.56l-1.455-.841a1.011 1.011 0 0 0 -.759-.1 1 1 0 0 0 -.607.466l-2 3.464a1 1 0 0 0 .366 1.37l1.453.838c-.016.19-.025.378-.025.563s.009.373.025.563l-1.453.836a1 1 0 0 0 1 1.733l2.033-1.173a1 1 0 0 0 .483-1.049 4.77 4.77 0 0 1 0-1.824 1 1 0 0 0 -.483-1.049l-1.167-.673 1-1.732 1.167.674a1 1 0 0 0 1.151-.107 4.957 4.957 0 0 1 1.578-.91 1 1 0 0 0 .666-.942v-1.348h2v1.349a1 1 0 0 0 .667.942 5 5 0 0 1 1.579.91 1 1 0 0 0 1.15.107l1.166-.674 1 1.732-1.166.673a1 1 0 0 0 -.484 1.049 4.77 4.77 0 0 1 0 1.824 1 1 0 0 0 .484 1.049l1.166.673-1 1.732-1.167-.674a1 1 0 0 0 -1.15.107 4.979 4.979 0 0 1 -1.578.91 1 1 0 0 0 -.667.942v1.349h-2v-1.349a1 1 0 0 0 -.666-.942 4.957 4.957 0 0 1 -1.578-.91 1 1 0 0 0 -1.151-.107l-2.033 1.174a1 1 0 0 0 1 1.733l1.455-.84a6.9 6.9 0 0 0 .973.56v1.681a1 1 0 0 0 1 1h4a1 1 0 0 0 1-1v-1.681a6.906 6.906 0 0 0 .974-.56l1.454.84a1.021 1.021 0 0 0 .759.1 1 1 0 0 0 .608-.466l2-3.464a1 1 0 0 0 -.367-1.367zm12.644-1.4a1 1 0 1 1 -1 1 1 1 0 0 1 1-1zm-19-28a1 1 0 1 1 -1 1 1 1 0 0 1 1-1z"/><path d="m13.928 53a3 3 0 1 0 -3 3 3 3 0 0 0 3-3zm-4 0a1 1 0 1 1 1 1 1 1 0 0 1 -1-1z"/><path d="m44.178 13.009a1 1 0 0 0 .1.759l2 3.464a1 1 0 0 0 .608.466 1.021 1.021 0 0 0 .759-.1l1.454-.84a6.906 6.906 0 0 0 .974.56l-.073 5.961-2.316.773a1 1 0 0 0 -.684.948v2.184a3 3 0 1 0 2 0v-1.463l2.316-.773a1 1 0 0 0 .684-.948v-4h2v12.279l-2.316.773a1 1 0 0 0 -.684.948v2.184a3 3 0 1 0 2 0v-1.463l2.316-.773a1 1 0 0 0 .684-.948l.072-15.681a6.9 6.9 0 0 0 .973-.56l1.455.84a1.019 1.019 0 0 0 .759.1 1 1 0 0 0 .607-.466l2-3.464a1 1 0 0 0 -.366-1.369l-1.453-.838c.016-.19.025-.378.025-.563s-.009-.373-.025-.563l1.453-.836a1 1 0 0 0 -1-1.733l-2.033 1.172a1 1 0 0 0 -.483 1.049 4.77 4.77 0 0 1 0 1.824 1 1 0 0 0 .483 1.049l1.167.673-1 1.732-1.167-.674a1 1 0 0 0 -1.151.107 4.957 4.957 0 0 1 -1.578.91 1 1 0 0 0 -.666.942v1.349h-2v-1.349a1 1 0 0 0 -.667-.942 4.979 4.979 0 0 1 -1.578-.91 1 1 0 0 0 -1.15-.107l-1.167.674-1-1.732 1.166-.673a1 1 0 0 0 .484-1.049 4.77 4.77 0 0 1 0-1.824 1 1 0 0 0 -.484-1.049l-1.166-.673 1-1.732 1.167.674a1 1 0 0 0 1.15-.107 4.979 4.979 0 0 1 1.578-.91 1 1 0 0 0 .667-.942v-1.349h2v1.349a1 1 0 0 0 .666.942 4.984 4.984 0 0 1 1.579.91 1 1 0 0 0 1.15.107l2.033-1.174a1 1 0 0 0 -1-1.733l-1.455.84a6.9 6.9 0 0 0 -.973-.56v-1.681a1 1 0 0 0 -1-1h-4a1 1 0 0 0 -1 1v1.681a6.906 6.906 0 0 0 -.974.56l-1.454-.841a1.011 1.011 0 0 0 -.759-.1 1 1 0 0 0 -.608.466l-2 3.464a1 1 0 0 0 .367 1.37l1.452.838c-.016.19-.024.378-.024.563s.008.373.024.563l-1.452.838a1 1 0 0 0 -.466.607zm3.822 17.991a1 1 0 1 1 1-1 1 1 0 0 1 -1 1zm4 9a1 1 0 1 1 1-1 1 1 0 0 1 -1 1z"/><path d="m50.072 11a3 3 0 1 0 3-3 3 3 0 0 0 -3 3zm4 0a1 1 0 1 1 -1-1 1 1 0 0 1 1 1z"/><path d="m2.034 13.009a1 1 0 0 0 .1.759l2 3.464a1 1 0 0 0 .607.466 1.021 1.021 0 0 0 .759-.1l1.455-.84a6.9 6.9 0 0 0 .973.56v1.682a1 1 0 0 0 1 1h4a1 1 0 0 0 1-1v-1.681a6.906 6.906 0 0 0 .974-.56l1.454.84a1 1 0 1 0 1-1.733l-2.033-1.174a1 1 0 0 0 -1.15.107 4.979 4.979 0 0 1 -1.578.91 1 1 0 0 0 -.667.942v1.349h-2v-1.349a1 1 0 0 0 -.666-.942 4.957 4.957 0 0 1 -1.578-.91 1 1 0 0 0 -1.151-.107l-1.167.674-1-1.732 1.167-.673a1 1 0 0 0 .483-1.049 4.77 4.77 0 0 1 0-1.824 1 1 0 0 0 -.483-1.049l-1.167-.673 1-1.732 1.167.674a1 1 0 0 0 1.151-.108 4.957 4.957 0 0 1 1.578-.91 1 1 0 0 0 .666-.942v-1.348h2v1.349a1 1 0 0 0 .667.942 5 5 0 0 1 1.579.91 1 1 0 0 0 1.15.107l1.166-.674 1 1.732-1.166.673a1 1 0 0 0 -.484 1.049 4.77 4.77 0 0 1 0 1.824 1 1 0 0 0 .484 1.049l2.032 1.173a1 1 0 1 0 1-1.733l-1.456-.838c.016-.19.024-.378.024-.563s-.008-.373-.024-.563l1.456-.837a1 1 0 0 0 .367-1.367l-2-3.464a1 1 0 0 0 -.608-.466 1.011 1.011 0 0 0 -.759.1l-1.454.84a6.962 6.962 0 0 0 -.974-.56v-1.683a1 1 0 0 0 -1-1h-4a1 1 0 0 0 -1 1v1.681a6.9 6.9 0 0 0 -.973.56l-1.455-.841a1.011 1.011 0 0 0 -.759-.1 1 1 0 0 0 -.607.466l-2 3.464a1 1 0 0 0 .366 1.37l1.453.838c-.016.19-.025.378-.025.563s.009.373.025.563l-1.453.836a1 1 0 0 0 -.466.609z"/><path d="m7.928 11a3 3 0 1 0 3-3 3 3 0 0 0 -3 3zm4 0a1 1 0 1 1 -1-1 1 1 0 0 1 1 1z"/><path d="m61.866 50.232a1 1 0 0 0 -1.366-.366l-2.033 1.173a1 1 0 0 0 -.483 1.049 4.77 4.77 0 0 1 0 1.824 1 1 0 0 0 .483 1.049l1.167.673-1 1.732-1.167-.674a1 1 0 0 0 -1.151.107 4.957 4.957 0 0 1 -1.578.91 1 1 0 0 0 -.666.942v1.349h-2v-1.349a1 1 0 0 0 -.667-.942 4.979 4.979 0 0 1 -1.578-.91 1 1 0 0 0 -1.15-.107l-1.167.674-1-1.732 1.166-.673a1 1 0 0 0 .484-1.049 4.77 4.77 0 0 1 0-1.824 1 1 0 0 0 -.484-1.049l-1.166-.673 1-1.732 1.167.674a1 1 0 0 0 1.15-.107 4.979 4.979 0 0 1 1.578-.91 1 1 0 0 0 .667-.942v-1.349h2v1.349a1 1 0 0 0 .666.942 4.984 4.984 0 0 1 1.579.91 1 1 0 0 0 1.15.107l2.033-1.174a1 1 0 0 0 -1-1.733l-1.455.84a6.9 6.9 0 0 0 -.973-.56v-1.681a1 1 0 0 0 -1-1h-4a1 1 0 0 0 -1 1v1.681a6.906 6.906 0 0 0 -.974.56l-1.454-.84a1.011 1.011 0 0 0 -.759-.1 1 1 0 0 0 -.608.466l-1.866 3.233h-6.63l-.811-3.242a1 1 0 0 0 -.97-.758h-3.184a3 3 0 1 0 0 2h2.4l.811 3.242a1 1 0 0 0 .973.758h8.339l.757.437c-.016.19-.024.378-.024.563s.008.373.024.563l-1.452.838a1 1 0 0 0 -.367 1.367l2 3.464a1 1 0 0 0 .608.466 1.021 1.021 0 0 0 .759-.1l1.454-.84a6.906 6.906 0 0 0 .974.56v1.682a1 1 0 0 0 1 1h4a1 1 0 0 0 1-1v-1.681a6.9 6.9 0 0 0 .973-.56l1.455.84a1.019 1.019 0 0 0 .759.1 1 1 0 0 0 .607-.466l2-3.464a1 1 0 0 0 -.366-1.369l-1.453-.838c.016-.19.025-.378.025-.563s-.009-.373-.025-.563l1.453-.836a1 1 0 0 0 .366-1.368zm-31.866-2.232a1 1 0 1 1 1-1 1 1 0 0 1 -1 1z"/><path d="m50.072 53a3 3 0 1 0 3-3 3 3 0 0 0 -3 3zm4 0a1 1 0 1 1 -1-1 1 1 0 0 1 1 1z"/><path d="m22.708 7.717a26.133 26.133 0 0 1 18.584 0 1 1 0 1 0 .716-1.867 28.12 28.12 0 0 0 -20.016 0 1 1 0 0 0 .716 1.867z"/><path d="m57.124 41.942a1 1 0 0 0 1.276-.609 28.02 28.02 0 0 0 0-18.666 1 1 0 0 0 -1.885.666 26.034 26.034 0 0 1 0 17.334 1 1 0 0 0 .609 1.275z"/><path d="m41.292 56.283a26.122 26.122 0 0 1 -18.584 0 1 1 0 1 0 -.716 1.867 28 28 0 0 0 20.016 0 1 1 0 1 0 -.716-1.867z"/><path d="m6.876 22.058a1 1 0 0 0 -1.276.609 28.02 28.02 0 0 0 0 18.666 1 1 0 0 0 1.885-.666 26.034 26.034 0 0 1 0-17.334 1 1 0 0 0 -.609-1.275z"/></g></g></svg>