<?xml version="1.0" encoding="UTF-8"?>
<svg xmlns="http://www.w3.org/2000/svg" xmlns:xlink="http://www.w3.org/1999/xlink" version="1.1" id="Capa_1" x="0px" y="0px" viewBox="0 0 512 512" style="enable-background:new 0 0 512 512;" xml:space="preserve" width="512" height="512">
<g>
	<g>
		<path style="fill:#2ABCC8;" d="M350.94,56.316v58.978c0,1.53,0.7,2.975,1.901,3.924l35.399,27.962&#10;&#9;&#9;&#9;c1.817,1.435,4.382,1.435,6.199,0l35.399-27.962c1.2-0.948,1.901-2.394,1.901-3.924V56.316c0-1.53-0.7-2.975-1.901-3.924&#10;&#9;&#9;&#9;l-35.399-27.962c-1.817-1.435-4.382-1.435-6.199,0l-35.399,27.962C351.64,53.34,350.94,54.786,350.94,56.316z"/>
		<path style="fill:none;stroke:#000000;stroke-width:15;stroke-linecap:round;stroke-linejoin:round;stroke-miterlimit:10;" d="&#10;&#9;&#9;&#9;M350.94,56.316v58.978c0,1.53,0.7,2.975,1.901,3.924l35.399,27.962c1.817,1.435,4.382,1.435,6.199,0l35.399-27.962&#10;&#9;&#9;&#9;c1.2-0.948,1.901-2.394,1.901-3.924V56.316c0-1.53-0.7-2.975-1.901-3.924l-35.399-27.962c-1.817-1.435-4.382-1.435-6.199,0&#10;&#9;&#9;&#9;l-35.399,27.962C351.64,53.34,350.94,54.786,350.94,56.316z"/>
		<polygon style="fill:#0996A4;" points="376.125,105.515 376.125,66.094 391.339,54.077 406.553,66.094 406.553,105.515 &#10;&#9;&#9;&#9;391.339,117.533 &#9;&#9;"/>
		
			<polygon style="fill:none;stroke:#000000;stroke-width:15;stroke-linecap:round;stroke-linejoin:round;stroke-miterlimit:10;" points="&#10;&#9;&#9;&#9;376.125,105.515 376.125,66.094 391.339,54.077 406.553,66.094 406.553,105.515 391.339,117.533 &#9;&#9;"/>
		
			<line style="fill:none;stroke:#000000;stroke-width:15;stroke-linecap:round;stroke-linejoin:round;stroke-miterlimit:10;" x1="391.339" y1="54.077" x2="391.339" y2="29.982"/>
		
			<line style="fill:none;stroke:#000000;stroke-width:15;stroke-linecap:round;stroke-linejoin:round;stroke-miterlimit:10;" x1="391.339" y1="117.533" x2="391.339" y2="149.627"/>
		
			<line style="fill:none;stroke:#000000;stroke-width:15;stroke-linecap:round;stroke-linejoin:round;stroke-miterlimit:10;" x1="406.553" y1="66.094" x2="428.056" y2="55.677"/>
		
			<line style="fill:none;stroke:#000000;stroke-width:15;stroke-linecap:round;stroke-linejoin:round;stroke-miterlimit:10;" x1="406.553" y1="105.515" x2="431.738" y2="117.716"/>
		
			<line style="fill:none;stroke:#000000;stroke-width:15;stroke-linecap:round;stroke-linejoin:round;stroke-miterlimit:10;" x1="376.125" y1="105.515" x2="350.94" y2="117.716"/>
		
			<line style="fill:none;stroke:#000000;stroke-width:15;stroke-linecap:round;stroke-linejoin:round;stroke-miterlimit:10;" x1="376.125" y1="66.094" x2="353.092" y2="54.936"/>
	</g>
	<path style="fill:#60B7FF;" d="M282.722,435.389c-12.192,0-23.679-4.435-32.576-12.074h-68.171&#10;&#9;&#9;c-8.897,7.639-20.384,12.074-32.576,12.074H49.054V494.5c0,5.523,4.477,10,10,10h314.015c5.523,0,10-4.477,10-10v-59.111H282.722z"/>
	<g>
		<path style="fill:#26A6FE;" d="M89.054,494.5v-59.111h-40V494.5c0,5.523,4.477,10,10,10h40&#10;&#9;&#9;&#9;C93.531,504.5,89.054,500.023,89.054,494.5z"/>
	</g>
	<path style="fill:none;stroke:#000000;stroke-width:15;stroke-linecap:round;stroke-linejoin:round;stroke-miterlimit:10;" d="&#10;&#9;&#9;M49.054,435.389V494.5c0,5.523,4.477,10,10,10h314.015c5.523,0,10-4.477,10-10v-59.111"/>
	<path style="fill:#C4E2FF;" d="M245.435,418.692l-26.845,42.08c-1.179,1.849-3.879,1.849-5.058,0l-26.845-42.08&#10;&#9;&#9;c-5.606,6.275-12.708,11.033-20.626,13.833V504.5h100v-71.975C258.143,429.725,251.041,424.967,245.435,418.692z"/>
	<g>
		<path style="fill:#B3DAFE;" d="M186.687,418.692c-5.606,6.275-12.708,11.033-20.626,13.833V504.5h29v-72.681L186.687,418.692z"/>
	</g>
	<path style="fill:none;stroke:#000000;stroke-width:15;stroke-linecap:round;stroke-linejoin:round;stroke-miterlimit:10;" d="&#10;&#9;&#9;M245.435,418.692l-26.845,42.08c-1.179,1.849-3.879,1.849-5.058,0l-26.845-42.08c-5.606,6.275-12.708,11.033-20.626,13.833V504.5&#10;&#9;&#9;h100v-71.975C258.143,429.725,251.041,424.967,245.435,418.692z"/>
	<g>
		<path style="fill:#6C7FD8;" d="M157.562,373.038c-5.125-8.033-7.847-17.363-7.847-26.891v-12.912l-17.202-17.201L59.5,350.158&#10;&#9;&#9;&#9;c-17.747,8.295-29.087,26.113-29.087,45.702v34.529c0,2.761,2.239,5,5,5H149.4c14.476,0,27.955-6.252,37.287-16.697&#10;&#9;&#9;&#9;L157.562,373.038z"/>
		<path style="fill:#4F66D0;" d="M70.413,403.861c0-19.589,11.34-37.408,29.087-45.702l50.215-23.47v-1.454l-17.202-17.201&#10;&#9;&#9;&#9;L59.5,350.158c-17.747,8.295-29.087,26.113-29.087,45.702v34.529c0,2.761,2.239,5,5,5h35V403.861z"/>
		<path style="fill:none;stroke:#000000;stroke-width:15;stroke-linecap:round;stroke-linejoin:round;stroke-miterlimit:10;" d="&#10;&#9;&#9;&#9;M132.514,316.033L59.5,350.158c-17.747,8.295-29.087,26.113-29.087,45.702v34.529c0,2.761,2.239,5,5,5h56.92"/>
		<path style="fill:none;stroke:#000000;stroke-width:15;stroke-linecap:round;stroke-linejoin:round;stroke-miterlimit:10;" d="&#10;&#9;&#9;&#9;M127.333,435.389H149.4c14.476,0,27.955-6.252,37.287-16.697"/>
		<path style="fill:#6C7FD8;" d="M372.622,350.158l-73.013-34.126l-17.202,17.202v12.912c0,9.528-2.723,18.858-7.847,26.891&#10;&#9;&#9;&#9;l-29.125,45.655c9.332,10.446,22.811,16.697,37.287,16.697h113.987c2.761,0,5-2.239,5-5v-34.529&#10;&#9;&#9;&#9;C401.709,376.271,390.369,358.453,372.622,350.158z"/>
		<g>
			<path style="fill:#4F66D0;" d="M298.56,389.038c5.125-8.033,7.847-17.363,7.847-26.891v-12.912l20.461-20.461l-27.259-12.741&#10;&#9;&#9;&#9;&#9;l-17.202,17.202v12.912c0,9.528-2.723,18.858-7.847,26.891l-29.125,45.655c6.53,7.309,15.094,12.554,24.605,15.052&#10;&#9;&#9;&#9;&#9;L298.56,389.038z"/>
		</g>
		<path style="fill:none;stroke:#000000;stroke-width:15;stroke-linecap:round;stroke-linejoin:round;stroke-miterlimit:10;" d="&#10;&#9;&#9;&#9;M372.622,350.158l-73.013-34.126l-17.202,17.202v12.912c0,9.528-2.723,18.858-7.847,26.891l-29.125,45.655&#10;&#9;&#9;&#9;c9.332,10.446,22.811,16.697,37.287,16.697h113.987c2.761,0,5-2.239,5-5v-34.529C401.709,376.271,390.369,358.453,372.622,350.158&#10;&#9;&#9;&#9;z"/>
		<path style="fill:#60B7FF;" d="M367.099,236.472l-302.075,0c-4.455,0-6.685,5.386-3.536,8.536l151.038,151.038&#10;&#9;&#9;&#9;c1.953,1.953,5.118,1.953,7.071,0l151.038-151.038C373.784,241.857,371.553,236.472,367.099,236.472z"/>
		<path style="fill:#26A6FE;" d="M101.488,245.007c-3.15-3.15-0.919-8.535,3.535-8.535h-40c-4.455,0-6.685,5.386-3.536,8.535&#10;&#9;&#9;&#9;l151.038,151.038c1.953,1.953,5.118,1.953,7.071,0l16.464-16.465L101.488,245.007z"/>
		<path style="fill:none;stroke:#000000;stroke-width:15;stroke-linecap:round;stroke-linejoin:round;stroke-miterlimit:10;" d="&#10;&#9;&#9;&#9;M367.099,236.472l-302.075,0c-4.455,0-6.685,5.386-3.536,8.536l151.038,151.038c1.953,1.953,5.118,1.953,7.071,0l151.038-151.038&#10;&#9;&#9;&#9;C373.784,241.857,371.553,236.472,367.099,236.472z"/>
	</g>
	<g>
		<path style="fill:#FFFFFF;" d="M266.413,291.18c-3.305,2.312-7.852-0.083-7.852-4.117v-18.458c0-13.807-11.193-25-25-25h-35&#10;&#9;&#9;&#9;c-13.807,0-25,11.193-25,25v18.458c0,4.034-4.546,6.429-7.852,4.117c-9.669-6.763-15.994-17.976-15.994-30.672v85.638&#10;&#9;&#9;&#9;c0,9.528,2.723,18.858,7.847,26.891l55.97,87.735c1.179,1.849,3.879,1.849,5.058,0l55.97-87.735&#10;&#9;&#9;&#9;c5.125-8.033,7.847-17.363,7.847-26.891v-85.638C282.407,273.204,276.082,284.417,266.413,291.18z"/>
		<g>
			<path style="fill:#F8F6F6;" d="M189.562,373.038c-5.125-8.033-7.847-17.363-7.847-26.891v-96.012&#10;&#9;&#9;&#9;&#9;c-5.01,4.572-8.154,11.154-8.154,18.47v18.458c0,4.034-4.546,6.429-7.852,4.117c-9.669-6.763-15.995-17.976-15.995-30.672v85.638&#10;&#9;&#9;&#9;&#9;c0,9.528,2.723,18.858,7.847,26.891l55.97,87.735c1.179,1.849,3.879,1.849,5.058,0l13.471-21.116L189.562,373.038z"/>
		</g>
		<path style="fill:none;stroke:#000000;stroke-width:15;stroke-linecap:round;stroke-linejoin:round;stroke-miterlimit:10;" d="&#10;&#9;&#9;&#9;M266.413,291.18c-3.305,2.312-7.852-0.083-7.852-4.117v-18.458c0-13.807-11.193-25-25-25h-35c-13.807,0-25,11.193-25,25v18.458&#10;&#9;&#9;&#9;c0,4.034-4.546,6.429-7.852,4.117c-9.669-6.763-15.994-17.976-15.994-30.672v85.638c0,9.528,2.723,18.858,7.847,26.891&#10;&#9;&#9;&#9;l55.97,87.735c1.179,1.849,3.879,1.849,5.058,0l55.97-87.735c5.125-8.033,7.847-17.363,7.847-26.891v-85.638&#10;&#9;&#9;&#9;C282.407,273.204,276.082,284.417,266.413,291.18z"/>
		<g>
			<path style="fill:#FFB09E;" d="M290.188,182.658h-7.781v56.731h7.781c14.289,0,25.873-11.584,25.873-25.873v-4.984&#10;&#9;&#9;&#9;&#9;C316.061,194.242,304.477,182.658,290.188,182.658z"/>
			<path style="fill:none;stroke:#000000;stroke-width:15;stroke-linecap:round;stroke-linejoin:round;stroke-miterlimit:10;" d="&#10;&#9;&#9;&#9;&#9;M290.188,182.658h-7.781v56.731h7.781c14.289,0,25.873-11.584,25.873-25.873v-4.984&#10;&#9;&#9;&#9;&#9;C316.061,194.242,304.477,182.658,290.188,182.658z"/>
			<path style="fill:#F89580;" d="M149.715,182.658h-7.781c-14.289,0-25.873,11.584-25.873,25.873v4.984&#10;&#9;&#9;&#9;&#9;c0,14.289,11.584,25.873,25.873,25.873h7.781V182.658z"/>
			<path style="fill:none;stroke:#000000;stroke-width:15;stroke-linecap:round;stroke-linejoin:round;stroke-miterlimit:10;" d="&#10;&#9;&#9;&#9;&#9;M149.715,182.658h-7.781c-14.289,0-25.873,11.584-25.873,25.873v4.984c0,14.289,11.584,25.873,25.873,25.873h7.781V182.658z"/>
		</g>
		<path style="fill:#FFCEBF;" d="M149.715,165.535v94.973c0,12.696,6.325,23.908,15.995,30.672c3.305,2.312,7.852-0.083,7.852-4.117&#10;&#9;&#9;&#9;v-18.458c0-13.807,11.193-25,25-25h35c13.807,0,25,11.193,25,25v18.458c0,4.034,4.546,6.429,7.852,4.117&#10;&#9;&#9;&#9;c9.669-6.763,15.995-17.976,15.995-30.672v-94.973H149.715z"/>
		<g>
			<path style="fill:#FFB09E;" d="M181.715,165.535h-32v94.973c0,12.696,6.325,23.908,15.995,30.672&#10;&#9;&#9;&#9;&#9;c3.305,2.312,7.852-0.083,7.852-4.117v-18.458c0-7.317,3.144-13.898,8.154-18.47V165.535z"/>
		</g>
		<path style="fill:none;stroke:#000000;stroke-width:15;stroke-linecap:round;stroke-linejoin:round;stroke-miterlimit:10;" d="&#10;&#9;&#9;&#9;M149.715,165.535v94.973c0,12.696,6.325,23.908,15.995,30.672c3.305,2.312,7.852-0.083,7.852-4.117v-18.458&#10;&#9;&#9;&#9;c0-13.807,11.193-25,25-25h35c13.807,0,25,11.193,25,25v18.458c0,4.034,4.546,6.429,7.852,4.117&#10;&#9;&#9;&#9;c9.669-6.763,15.995-17.976,15.995-30.672v-94.973H149.715z"/>
		<g>
			
				<line style="fill:none;stroke:#000000;stroke-width:15;stroke-linecap:round;stroke-linejoin:round;stroke-miterlimit:10;" x1="182.766" y1="192.991" x2="182.766" y2="206.455"/>
			
				<line style="fill:none;stroke:#000000;stroke-width:15;stroke-linecap:round;stroke-linejoin:round;stroke-miterlimit:10;" x1="249.357" y1="192.991" x2="249.357" y2="206.455"/>
		</g>
		<g>
			<path style="fill:none;stroke:#000000;stroke-width:15;stroke-linecap:round;stroke-linejoin:round;stroke-miterlimit:10;" d="&#10;&#9;&#9;&#9;&#9;M200.041,271.969c10.258,4.249,21.783,4.249,32.041,0"/>
		</g>
		
			<polyline style="fill:none;stroke:#000000;stroke-width:15;stroke-linecap:round;stroke-linejoin:round;stroke-miterlimit:10;" points="&#10;&#9;&#9;&#9;214.043,201.41 198.405,219.067 214.043,231.679 &#9;&#9;"/>
		<path style="fill:#60B7FF;" d="M279.061,131.32h-126L32.268,177.652c-5.178,1.986-3.755,9.668,1.791,9.668h364.005&#10;&#9;&#9;&#9;c5.545,0,6.968-7.682,1.791-9.668L279.061,131.32z"/>
		<g>
			<path style="fill:#26A6FE;" d="M170.839,150.32h157.758l-49.536-19h-126L32.268,177.652c-5.177,1.986-3.755,9.668,1.791,9.668&#10;&#9;&#9;&#9;&#9;h37.538l93.871-36.005C167.182,150.658,169.003,150.32,170.839,150.32z"/>
		</g>
		<path style="fill:none;stroke:#000000;stroke-width:15;stroke-linecap:round;stroke-linejoin:round;stroke-miterlimit:10;" d="&#10;&#9;&#9;&#9;M279.061,131.32h-126L32.268,177.652c-5.178,1.986-3.755,9.668,1.791,9.668h364.005c5.545,0,6.968-7.682,1.791-9.668&#10;&#9;&#9;&#9;L279.061,131.32z"/>
		<path style="fill:#60B7FF;" d="M283.805,7.675l-75.386,25.731c-6.344,2.165-11.552,6.787-14.456,12.828l-40.902,85.086h126&#10;&#9;&#9;&#9;L237.223,62.19l49.67-49.552C289.144,10.392,286.814,6.648,283.805,7.675z"/>
		<path style="fill:#60B7FF;" d="M283.805,7.675l-75.386,25.731c-6.344,2.165-11.552,6.787-14.456,12.828l-40.902,85.086h126&#10;&#9;&#9;&#9;L237.223,62.19l49.67-49.552C289.144,10.392,286.814,6.648,283.805,7.675z"/>
		<path style="fill:#26A6FE;" d="M215.963,58.234c2.904-6.041,8.112-10.663,14.456-12.828l35.916-12.259l20.558-20.509&#10;&#9;&#9;&#9;c2.251-2.246-0.079-5.99-3.088-4.963l-75.386,25.731c-6.344,2.165-11.552,6.787-14.456,12.828l-40.902,85.086h27.769&#10;&#9;&#9;&#9;L215.963,58.234z"/>
		<path style="fill:none;stroke:#000000;stroke-width:15;stroke-linecap:round;stroke-linejoin:round;stroke-miterlimit:10;" d="&#10;&#9;&#9;&#9;M283.805,7.675l-75.386,25.731c-6.344,2.165-11.552,6.787-14.456,12.828l-40.902,85.086h126L237.223,62.19l49.67-49.552&#10;&#9;&#9;&#9;C289.144,10.392,286.814,6.648,283.805,7.675z"/>
		<polygon style="fill:#6C7FD8;" points="260.906,101.322 167.482,101.322 153.061,131.32 279.061,131.32 &#9;&#9;"/>
		<polygon style="fill:#4F66D0;" points="153.061,131.32 180.83,131.32 195.25,101.322 167.482,101.322 &#9;&#9;"/>
		
			<polyline style="fill:none;stroke:#000000;stroke-width:15;stroke-linecap:round;stroke-linejoin:round;stroke-miterlimit:10;" points="&#10;&#9;&#9;&#9;203,101.322 167.482,101.322 153.061,131.32 279.061,131.32 260.906,101.322 238,101.322 &#9;&#9;"/>
	</g>
	<path style="fill:none;stroke:#000000;stroke-width:15;stroke-linecap:round;stroke-linejoin:round;stroke-miterlimit:10;" d="&#10;&#9;&#9;M216.061,448.506"/>
	<g>
		<path style="fill:#E9B665;" d="M378.839,189.826v220.886h19.053c2.055,0,4.048,0.266,5.947,0.763V189.826H378.839z"/>
	</g>
	
		<line style="fill:none;stroke:#000000;stroke-width:15;stroke-linecap:round;stroke-linejoin:round;stroke-miterlimit:10;" x1="403.839" y1="411.475" x2="403.839" y2="292"/>
	
		<polyline style="fill:none;stroke:#000000;stroke-width:15;stroke-linecap:round;stroke-linejoin:round;stroke-miterlimit:10;" points="&#10;&#9;&#9;403.839,257 403.839,189.826 378.839,189.826 378.839,410.712 &#9;"/>
	<path style="fill:#FFD15B;" d="M371.589,184.826c0,2.761,2.239,5,5,5h29.499c2.761,0,5-2.239,5-5v-38.532h-39.499V184.826z"/>
	<path style="fill:#FFC344;" d="M390.923,184.826v-38.532h-19.333v38.532c0,2.761,2.239,5,5,5h19.333&#10;&#9;&#9;C393.161,189.826,390.923,187.587,390.923,184.826z"/>
	<path style="fill:none;stroke:#000000;stroke-width:15;stroke-linecap:round;stroke-linejoin:round;stroke-miterlimit:10;" d="&#10;&#9;&#9;M371.589,184.826c0,2.761,2.239,5,5,5h29.499c2.761,0,5-2.239,5-5v-38.532h-39.499V184.826z"/>
	<path style="fill:#FFCEBF;" d="M373.812,410.712c-6.54,0-12.22,5.028-12.464,11.563c-0.217,5.793,3.672,10.701,8.983,12.084&#10;&#9;&#9;c-5.17,1.346-8.992,6.032-8.992,11.623s3.822,10.278,8.992,11.623c-5.17,1.346-8.992,6.032-8.992,11.623s3.822,10.277,8.992,11.623&#10;&#9;&#9;c-5.312,1.383-9.2,6.291-8.983,12.084c0.245,6.535,5.925,11.563,12.464,11.563h24.08c12.949,0,23.447-10.498,23.447-23.447v-46.894&#10;&#9;&#9;c0-12.949-10.498-23.447-23.447-23.447H373.812z"/>
	<path style="fill:#FFB09E;" d="M385.339,481.053v-46.894c0-11.073,7.679-20.347,18-22.804c-1.749-0.416-3.571-0.643-5.447-0.643&#10;&#9;&#9;h-24.08c-6.54,0-12.22,5.028-12.464,11.563c-0.217,5.793,3.672,10.701,8.983,12.084c-5.17,1.346-8.992,6.032-8.992,11.623&#10;&#9;&#9;s3.822,10.278,8.992,11.623c-5.17,1.346-8.992,6.032-8.992,11.623s3.822,10.277,8.992,11.623c-5.312,1.383-9.2,6.291-8.983,12.084&#10;&#9;&#9;c0.245,6.535,5.925,11.563,12.464,11.563h24.08c1.876,0,3.698-0.227,5.447-0.643C393.017,501.4,385.339,492.126,385.339,481.053z"/>
	<path style="fill:none;stroke:#000000;stroke-width:15;stroke-linecap:round;stroke-linejoin:round;stroke-miterlimit:10;" d="&#10;&#9;&#9;M373.812,410.712c-6.54,0-12.22,5.028-12.464,11.563c-0.217,5.793,3.672,10.701,8.983,12.084c-5.17,1.346-8.992,6.032-8.992,11.623&#10;&#9;&#9;s3.822,10.278,8.992,11.623c-5.17,1.346-8.992,6.032-8.992,11.623s3.822,10.277,8.992,11.623c-5.312,1.383-9.2,6.291-8.983,12.084&#10;&#9;&#9;c0.245,6.535,5.925,11.563,12.464,11.563h24.08c12.949,0,23.447-10.498,23.447-23.447v-46.894&#10;&#9;&#9;c0-12.949-10.498-23.447-23.447-23.447H373.812z"/>
	<path style="fill:#E9B665;" d="M336.298,114.748l35.292,31.546h39.499l35.292-31.546c2.054-1.836,0.755-5.237-1.999-5.237H338.297&#10;&#9;&#9;C335.543,109.511,334.244,112.913,336.298,114.748z"/>
	<path style="fill:#D8AA5E;" d="M370.297,109.511h-32c-2.754,0-4.053,3.401-1.999,5.237l35.292,31.546h32l-35.292-31.546&#10;&#9;&#9;C366.244,112.913,367.543,109.511,370.297,109.511z"/>
	<path style="fill:none;stroke:#000000;stroke-width:15;stroke-linecap:round;stroke-linejoin:round;stroke-miterlimit:10;" d="&#10;&#9;&#9;M336.298,114.748l35.292,31.546h39.499l35.292-31.546c2.054-1.836,0.755-5.237-1.999-5.237H338.297&#10;&#9;&#9;C335.543,109.511,334.244,112.913,336.298,114.748z"/>
	<g>
		<g>
			
				<line style="fill:none;stroke:#000000;stroke-width:15;stroke-linecap:round;stroke-linejoin:round;stroke-miterlimit:10;" x1="462.947" y1="7.5" x2="462.947" y2="13.5"/>
			
				<line style="fill:none;stroke:#000000;stroke-width:15;stroke-linecap:round;stroke-linejoin:round;stroke-miterlimit:10;" x1="462.947" y1="41.5" x2="462.947" y2="47.5"/>
			
				<line style="fill:none;stroke:#000000;stroke-width:15;stroke-linecap:round;stroke-linejoin:round;stroke-miterlimit:10;" x1="442.947" y1="27.5" x2="448.947" y2="27.5"/>
			
				<line style="fill:none;stroke:#000000;stroke-width:15;stroke-linecap:round;stroke-linejoin:round;stroke-miterlimit:10;" x1="476.947" y1="27.5" x2="482.947" y2="27.5"/>
		</g>
	</g>
	<g>
		<g>
			
				<line style="fill:none;stroke:#000000;stroke-width:15;stroke-linecap:round;stroke-linejoin:round;stroke-miterlimit:10;" x1="305.552" y1="54.482" x2="305.552" y2="60.482"/>
			
				<line style="fill:none;stroke:#000000;stroke-width:15;stroke-linecap:round;stroke-linejoin:round;stroke-miterlimit:10;" x1="305.552" y1="88.482" x2="305.552" y2="94.482"/>
			
				<line style="fill:none;stroke:#000000;stroke-width:15;stroke-linecap:round;stroke-linejoin:round;stroke-miterlimit:10;" x1="285.552" y1="74.482" x2="291.552" y2="74.482"/>
			
				<line style="fill:none;stroke:#000000;stroke-width:15;stroke-linecap:round;stroke-linejoin:round;stroke-miterlimit:10;" x1="319.552" y1="74.482" x2="325.552" y2="74.482"/>
		</g>
	</g>
</g>















</svg>
