<svg id="Capa_1" enable-background="new 0 0 512 512" height="512" viewBox="0 0 512 512" width="512" xmlns="http://www.w3.org/2000/svg"><g><g><g><path d="m78.942 251.817h100.416v188.516h-100.416z" fill="#c5a085" transform="matrix(.966 -.259 .259 .966 -85.17 45.219)"/><g fill="#aebdcc"><path d="m88.845 195.654-18.823 16.686-24.643-5.039-13.954-52.076 21.913 5.77 21.553-17.417z"/><path d="m132.311 184.008-18.822 16.685-24.644-5.039-13.954-52.076 21.913 5.77 21.553-17.417z"/></g></g><g><path d="m67.041 502c0-37.847 10.477-73.307 28.757-103.769h356.02c18.279 30.462 28.757 65.922 28.757 103.769z" fill="#f6dbd4"/><path d="m144.696 502c0-33.167 6.006-67.427 16.989-96.761l62.012-7.954c-18.412 5.183-37.833 7.955-57.903 7.955-32.456 0-63.211-7.263-90.749-20.231 39.099-44.911 96.687-73.302 160.909-73.302h75.707c64.222 0 121.81 28.391 160.909 73.302-27.538 12.968-58.293 20.231-90.749 20.231-20.069 0-39.491-2.773-57.903-7.955l62.012 7.954c10.983 29.334 16.989 63.594 16.989 96.761z" fill="#8fd5f3"/><path d="m274.29 258.105c68.512 0 124.052-55.54 124.052-124.052s-55.54-124.053-124.052-124.053z" fill="#f2cc73"/><circle cx="273.808" cy="110.673" fill="#f2cc73" r="100.673"/><path d="m181.434 123.116v64.926c0 51.017 41.357 92.374 92.374 92.374s92.374-41.357 92.374-92.374v-64.926z" fill="#f6dbd4"/><path d="m173.364 106.33c-2.77 14.147-9.75 26.783-19.575 36.562 12.907 12.444 30.505 20.055 49.891 19.874 37.611-.351 68.779-30.583 70.209-68.168.34-8.935-.975-17.518-3.661-25.47-3.929-11.633-14.852-19.619-27.13-19.652-.065 0-.13 0-.195 0-34.355-.001-63.007 24.422-69.539 56.854z" fill="#f2cc73"/><path d="m320.01 61.458c-15.312-2.327-30.184.82-42.659 7.954-.503 2.013-.926 4.064-1.244 6.157-5.479 36.061 19.312 69.737 55.374 75.217 15.312 2.327 30.184-.82 42.659-7.954.503-2.014.926-4.065 1.244-6.158 5.48-36.061-19.312-69.736-55.374-75.216z" fill="#f2cc73"/><path d="m235.955 280.417v24.127c0 20.906 16.948 37.853 37.853 37.853s37.853-16.948 37.853-37.853v-24.127z" fill="#f6dbd4"/><g fill="#f2cc73"><ellipse cx="371.032" cy="258.105" rx="23.637" ry="40.934"/><ellipse cx="371.032" cy="339.972" rx="23.637" ry="40.934"/><ellipse cx="371.032" cy="441.453" rx="34.963" ry="60.547"/></g><circle cx="274.29" cy="80.79" fill="#fff" r="25.333"/></g><g><path d="m292.986 224.242c3.905-3.905 3.905-10.237 0-14.142s-10.237-3.905-14.142 0c-1.216 1.216-2.833 1.886-4.553 1.886s-3.337-.67-4.554-1.887c-3.905-3.905-10.237-3.905-14.143 0-3.905 3.905-3.905 10.237 0 14.143 4.994 4.994 11.634 7.744 18.696 7.744s13.702-2.75 18.696-7.744z"/><circle cx="251.06" cy="502" r="10"/></g></g><path d="m464.119 399.555c4.281-1.701 8.522-3.525 12.712-5.498 2.835-1.335 4.881-3.923 5.526-6.99s-.186-6.259-2.244-8.623c-21.645-24.863-48.859-44.845-78.921-58.034-2.936-8.034-7.643-15.354-13.782-21.372 10.869-10.655 17.259-25.394 17.259-40.934 0-18.198-8.761-35.299-23.22-46.026 17.261-22.827 26.597-50.493 26.597-79.647.001-73.022-59.627-132.431-132.92-132.431-60.357 0-107.226 41.071-111.446 97.657-.971 13.02-5.443 24.689-12.931 33.746-1.259 1.523-2.61 3.004-4.014 4.401-1.905 1.896-2.967 4.479-2.945 7.167.021 2.688 1.124 5.254 3.059 7.12 7.245 6.985 15.577 12.444 24.585 16.266v21.685c0 39.173 22.12 73.271 54.521 90.478v23.43c-15.141.678-30.057 2.884-44.545 6.535l-18.499-69.04c-1.43-5.334-6.911-8.501-12.248-7.071l-17.104 4.583-8.811-32.882 14.197-12.585c2.835-2.513 4.006-6.412 3.026-10.071l-13.954-52.076c-.876-3.269-3.346-5.873-6.564-6.92-3.218-1.048-6.749-.396-9.38 1.731l-17.617 14.236-17.018-4.481-.016.016c-3.062-.803-6.336-.128-8.815 1.876l-17.617 14.235-17.019-4.481c-3.449-.907-7.118.088-9.633 2.615-2.515 2.526-3.496 6.2-2.573 9.644l13.954 52.076c.98 3.659 3.944 6.45 7.656 7.209l18.588 3.801 8.811 32.882-17.105 4.583c-2.562.687-4.746 2.362-6.072 4.659s-1.686 5.026-.999 7.588l27.078 101.058c-2.094 2.216-4.161 4.464-6.173 6.774-2.058 2.364-2.889 5.556-2.244 8.624.645 3.067 2.69 5.655 5.526 6.99 4.195 1.975 8.435 3.799 12.711 5.5-17.327 31.328-26.455 66.585-26.455 102.442 0 5.523 4.477 10 10 10h139.023c5.523 0 10-4.477 10-10s-4.477-10-10-10h-51.166c.981-26.375 5.793-53.086 13.855-76.784 19.58-.256 38.961-3.042 57.655-8.304 5.316-1.497 8.413-7.02 6.916-12.336s-7.017-8.41-12.336-6.916c-17.871 5.031-36.44 7.582-55.193 7.582-25.555 0-50.305-4.636-73.76-13.8 36.448-36.534 85.458-57.891 137.165-59.607 6.948 17.864 24.317 30.563 44.608 30.563s37.66-12.7 44.608-30.565c7.165.235 14.309.844 21.378 1.821-1.567 5.235-2.399 10.725-2.399 16.32 0 15.367 6.247 29.953 16.896 40.579-17.671 15.047-28.221 37.314-28.221 60.901 0 18.643 6.586 36.465 18.072 50.547h-48.078c-5.523 0-10 4.477-10 10s4.477 10 10 10h184.511c5.523 0 10-4.477 10-10 0-35.859-9.127-71.116-26.456-102.446zm-369.861-240.536c3.078.811 6.357.108 8.832-1.893l9.59-7.75 8.373 31.248-10.457 9.27-13.69-2.799-7.893-29.458zm-2.52 47.434 13.691 2.799 8.811 32.882-24.148 6.47-8.811-32.882zm-24.609-4.911-13.69-2.8-7.894-29.458 5.247 1.382c3.078.811 6.357.108 8.832-1.893l9.59-7.75 8.373 31.248zm35.607 204.659c14.698 4.333 29.794 7.126 45.201 8.335-7.611 24.254-12.128 51.05-13.048 77.464h-57.587c1.579-30.16 10.296-59.57 25.434-85.799zm-12.576-50.286-21.656-80.821 77.675-20.813 16.068 59.965c-26.305 9.206-50.782 23.297-72.087 41.669zm294.51-97.81c0 11.207-5.107 21.78-13.637 28.802-8.53-7.023-13.637-17.596-13.637-28.802 0-11.207 5.107-21.78 13.637-28.803 8.53 7.023 13.637 17.596 13.637 28.803zm0 81.868c0 11.207-5.107 21.78-13.637 28.802-8.53-7.023-13.637-17.596-13.637-28.802 0-11.207 5.107-21.78 13.637-28.803 8.53 7.022 13.637 17.596 13.637 28.803zm-8.488-157.14v-36.129c0-5.523-4.477-10-10-10-1.332 0-2.601.266-3.764.739l-.001-.003c-9.293 3.777-19.47 4.975-29.434 3.459-17.676-2.686-33.296-13.749-41.838-29.064 8.144-4.439 14.35-11.992 17.027-21.046h71.845c5.176 12.882 8.03 26.942 8.03 41.643 0 17.808-4.106 34.96-11.865 50.401zm-163.869-140.958c16.609-14.106 38.917-21.875 62.813-21.875 39.421 0 74.183 20.222 94.388 50.79h-61.341c-4.325-14.626-17.873-25.333-33.882-25.333-16.01 0-29.558 10.706-33.883 25.333h-49.82c4.887-11.052 12.188-20.816 21.725-28.915zm77.31 38.915c0 8.455-6.878 15.333-15.333 15.333s-15.333-6.878-15.333-15.333 6.878-15.333 15.333-15.333 15.333 6.878 15.333 15.333zm-121.561 60.959c8.998-11.87 14.363-26.53 15.562-42.604.211-2.835.55-5.621 1.009-8.355h55.774c3.051 10.318 10.691 18.68 20.55 22.713-9.055 22.859-32.198 39.029-57.37 39.264-12.871.132-25.182-3.745-35.525-11.018zm133.599 162.794c0 15.358-12.495 27.854-27.853 27.854s-27.854-12.495-27.854-27.854v-17.979c8.859 2.508 18.202 3.852 27.854 3.852 9.651 0 18.994-1.344 27.853-3.852zm-27.853-34.126c-45.421 0-82.375-36.953-82.375-82.374v-16.105c4.054.58 8.175.867 12.34.828 17.748-.165 35.36-6.301 49.592-17.276 10-7.712 18.06-17.605 23.536-28.673 11.989 17.872 31.391 30.562 53.077 33.857 3.799.577 7.62.864 11.433.864 4.964 0 9.912-.492 14.771-1.455v27.96c0 45.421-36.952 82.374-82.374 82.374zm75.632 34.479c-9.152-1.559-18.447-2.544-27.779-2.957v-23.419c5.871-3.118 11.404-6.79 16.53-10.947 2.024 11.969 7.832 23.004 16.463 31.465-1.874 1.838-3.616 3.795-5.214 5.858zm21.592 185.206c-15.53-11.194-24.962-29.335-24.962-48.649 0-19.313 9.432-37.454 24.962-48.648 15.53 11.194 24.962 29.335 24.962 48.648.001 19.314-9.432 37.455-24.962 48.649zm16.742-109.55c9.683-9.662 15.722-22.599 16.738-36.42 18.773 9.68 36.086 22.315 51.061 37.307-17.619 6.874-36.043 11.204-54.984 12.937-3.693-5.067-7.989-9.714-12.815-13.824zm24.965 111.448c-.265-7.633-.83-15.328-1.689-22.995 3.216-8.711 4.945-18.022 4.945-27.552 0-9.727-1.795-19.229-5.141-28.095 11.551-1.499 22.908-3.894 34.022-7.164 15.141 26.231 23.859 55.643 25.438 85.806z"/></g></svg>