<?xml version="1.0" encoding="UTF-8" standalone="no"?>
<!-- Created with Inkscape (http://www.inkscape.org/) -->

<svg
   version="1.1"
   id="svg501"
   xml:space="preserve"
   width="682.66669"
   height="682.66669"
   viewBox="0 0 682.66669 682.66669"
   xmlns="http://www.w3.org/2000/svg"
   xmlns:svg="http://www.w3.org/2000/svg"><defs
     id="defs505"><clipPath
       clipPathUnits="userSpaceOnUse"
       id="clipPath515"><path
         d="M 0,512 H 512 V 0 H 0 Z"
         id="path513" /></clipPath></defs><g
     id="g507"
     transform="matrix(1.3333333,0,0,-1.3333333,0,682.66667)"><g
       id="g509"><g
         id="g511"
         clip-path="url(#clipPath515)"><g
           id="g517"
           transform="translate(437.208,260.8691)"><path
             d="m 0,0 c 0,-19.927 -16.153,-36.081 -36.081,-36.081 -19.927,0 -36.081,16.154 -36.081,36.081 0,19.927 16.154,36.081 36.081,36.081 C -16.153,36.081 0,19.927 0,0"
             style="fill:#ffbf9e;fill-opacity:1;fill-rule:nonzero;stroke:none"
             id="path519" /></g><g
           id="g521"
           transform="translate(146.9507,260.8691)"><path
             d="m 0,0 c 0,-19.927 -16.154,-36.081 -36.081,-36.081 -19.927,0 -36.081,16.154 -36.081,36.081 0,19.927 16.154,36.081 36.081,36.081 C -16.154,36.081 0,19.927 0,0"
             style="fill:#f7ab8b;fill-opacity:1;fill-rule:nonzero;stroke:none"
             id="path523" /></g><g
           id="g525"
           transform="translate(156.9043,7.5)"><path
             d="m 0,0 c -12.566,0 -22.098,11.469 -19.643,23.792 11.055,55.476 60.015,97.283 118.739,97.283 58.724,0 107.683,-41.807 118.738,-97.283 C 220.29,11.469 210.758,0 198.191,0 Z"
             style="fill:#4e5660;fill-opacity:1;fill-rule:nonzero;stroke:none"
             id="path527" /></g><g
           id="g529"
           transform="translate(280.9932,125.9702)"><path
             d="m 0,0 c -8.065,1.705 -16.426,2.605 -24.993,2.605 -58.6,0 -107.629,-41.885 -118.724,-97.271 -2.469,-12.326 7.069,-23.804 19.64,-23.804 h 28.009 C -96.068,-60.304 -54.793,-11.561 0,0"
             style="fill:#383c43;fill-opacity:1;fill-rule:nonzero;stroke:none"
             id="path531" /></g><g
           id="g533"
           transform="translate(437.5967,218.5801)"><path
             d="M 0,0 C 0,21.049 -17.062,38.112 -38.111,38.112 V 58.79 l -1.373,19.941 c -9.706,69.807 -69.634,123.545 -142.113,123.545 -72.478,0 -132.406,-53.738 -142.111,-123.545 L -325.082,58.79 V 38.112 c -21.048,0 -38.112,-17.063 -38.112,-38.112 0,-16.718 10.769,-30.911 25.744,-36.048 -3.831,-5.944 -6.062,-13.016 -6.062,-20.613 0,-20.602 16.349,-37.375 36.78,-38.078 -0.95,-3.329 -1.47,-6.84 -1.47,-10.474 0,-21.049 17.063,-38.112 38.112,-38.112 2.591,0 5.122,0.261 7.568,0.754 6.501,-11.72 18.994,-19.656 33.345,-19.656 6.816,0 13.208,1.798 18.744,4.932 6.989,-8.085 17.311,-13.208 28.836,-13.208 11.526,0 21.848,5.123 28.836,13.208 5.536,-3.134 11.929,-4.932 18.744,-4.932 14.352,0 26.845,7.936 33.346,19.656 2.446,-0.493 4.976,-0.754 7.567,-0.754 21.049,0 38.112,17.063 38.112,38.112 0,3.634 -0.519,7.145 -1.469,10.474 20.431,0.703 36.78,17.476 36.78,38.078 0,7.597 -2.232,14.669 -6.063,20.613 C -10.769,-30.911 0,-16.718 0,0"
             style="fill:#e26e7e;fill-opacity:1;fill-rule:nonzero;stroke:none"
             id="path535" /></g><g
           id="g537"
           transform="translate(227.1748,61.2729)"><path
             d="m 0,0 c -4.844,7.124 -7.677,15.725 -7.677,24.988 0,7.34 1.788,14.257 4.935,20.36 -24.098,0.55 -43.467,20.244 -43.467,44.474 0,24.576 19.923,44.5 44.5,44.5 V 356.32 C -59.93,343.701 -104.984,295.752 -113.287,236.038 l -1.373,-19.941 v -20.678 c -21.048,0 -38.112,-17.063 -38.112,-38.112 0,-16.718 10.769,-30.911 25.744,-36.048 -3.83,-5.944 -6.063,-13.016 -6.063,-20.613 0,-20.602 16.35,-37.375 36.78,-38.078 -0.949,-3.329 -1.469,-6.84 -1.469,-10.474 0,-21.049 17.063,-38.112 38.112,-38.112 2.591,0 5.122,0.261 7.567,0.754 6.501,-11.72 18.995,-19.656 33.346,-19.656 6.816,0 13.208,1.798 18.744,4.932 C -0.007,0.008 -0.003,0.004 0,0"
             style="fill:#d3596e;fill-opacity:1;fill-rule:nonzero;stroke:none"
             id="path539" /></g><g
           id="g541"
           transform="translate(447.3213,498.6919)"><path
             d="m 0,0 -19.35,-38.698 c -7.199,-14.399 -21.915,-23.494 -38.012,-23.494 H -325.28 c -16.097,0 -30.814,9.095 -38.013,23.494 L -382.643,0 c -1.779,3.56 -5.417,5.808 -9.397,5.808 -5.802,0 -10.506,-4.704 -10.506,-10.506 v -40.494 c 0,-46.944 38.055,-85 85,-85 h 252.449 c 46.945,0 85,38.056 85,85 V -4.698 C 19.903,1.104 15.2,5.808 9.397,5.808 5.418,5.808 1.779,3.56 0,0"
             style="fill:#fcf2d0;fill-opacity:1;fill-rule:nonzero;stroke:none"
             id="path543" /></g><g
           id="g545"
           transform="translate(382.2246,402.5)"><path
             d="m 0,0 h -252.45 c -46.944,0 -85,38.056 -85,85 V 51 c 0,-46.944 38.056,-85 85,-85 H 0 c 46.944,0 85,38.056 85,85 V 85 C 85,38.056 46.944,0 0,0"
             style="fill:#efdfb4;fill-opacity:1;fill-rule:nonzero;stroke:none"
             id="path547" /></g><g
           id="g549"
           transform="translate(255.9985,468.5)"><path
             d="M 0,0 V 0 C -88.366,0 -160,-71.634 -160,-160 H 160 C 160,-71.634 88.366,0 0,0"
             style="fill:#9aa3b1;fill-opacity:1;fill-rule:nonzero;stroke:none"
             id="path551" /></g><g
           id="g553"
           transform="translate(256,468.5)"><path
             d="m 0,0 h -0.001 -0.001 c -88.365,0 -159.999,-71.634 -159.999,-160 v 0 h 60 v 0 c 0,67.147 41.365,124.624 100.001,148.357 z"
             style="fill:#7e8b9e;fill-opacity:1;fill-rule:nonzero;stroke:none"
             id="path555" /></g><g
           id="g557"
           transform="translate(256,504.5)"><path
             d="M 0,0 V 0 C -11.046,0 -20,-8.954 -20,-20 V -196 H 20 V -20 C 20,-8.954 11.046,0 0,0"
             style="fill:#fcf2d0;fill-opacity:1;fill-rule:nonzero;stroke:none"
             id="path559" /></g><g
           id="g561"
           transform="translate(256,382.5933)"><path
             d="M 0,0 C -11.046,0 -20,8.954 -20,20 V -74.093 H 20 V 20 C 20,8.954 11.046,0 0,0"
             style="fill:#efdfb4;fill-opacity:1;fill-rule:nonzero;stroke:none"
             id="path563" /></g><g
           id="g565"
           transform="translate(147.7261,298.8633)"><path
             d="m 0,0 v -75.425 c 0,-22.281 18.062,-40.344 40.344,-40.344 h 135.861 c 22.281,0 40.343,18.063 40.343,40.344 V 0 Z"
             style="fill:#ffd4be;fill-opacity:1;fill-rule:nonzero;stroke:none"
             id="path567" /></g><g
           id="g569"
           transform="translate(237.1748,223.4385)"><path
             d="M 0,0 V 75.425 H -89.449 V 0 c 0,-22.281 18.062,-40.344 40.344,-40.344 H 40.344 C 18.062,-40.344 0,-22.281 0,0"
             style="fill:#ffbf9e;fill-opacity:1;fill-rule:nonzero;stroke:none"
             id="path571" /></g><g
           id="g573"
           transform="translate(193.5513,250.5645)"><path
             d="M 0,0 V -10.366"
             style="fill:none;stroke:#000000;stroke-width:15;stroke-linecap:round;stroke-linejoin:round;stroke-miterlimit:10;stroke-dasharray:none;stroke-opacity:1"
             id="path575" /></g><g
           id="g577"
           transform="translate(318.4482,250.5645)"><path
             d="M 0,0 V -10.366"
             style="fill:none;stroke:#000000;stroke-width:15;stroke-linecap:round;stroke-linejoin:round;stroke-miterlimit:10;stroke-dasharray:none;stroke-opacity:1"
             id="path579" /></g><g
           id="g581"
           transform="translate(181.3086,262.0923)"><path
             d="M 0,0 24.065,-6.448"
             style="fill:none;stroke:#000000;stroke-width:15;stroke-linecap:round;stroke-linejoin:round;stroke-miterlimit:10;stroke-dasharray:none;stroke-opacity:1"
             id="path583" /></g><g
           id="g585"
           transform="translate(330.6914,262.0923)"><path
             d="M 0,0 -24.065,-6.448"
             style="fill:none;stroke:#000000;stroke-width:15;stroke-linecap:round;stroke-linejoin:round;stroke-miterlimit:10;stroke-dasharray:none;stroke-opacity:1"
             id="path587" /></g><g
           id="g589"
           transform="translate(145.2314,222.4775)"><path
             d="m 0,0 c 17.134,-17.149 44.928,-17.155 62.07,-0.014 13.042,13.043 34.188,13.043 47.23,0 l 0.108,-0.108 c 13.042,-13.042 13.042,-34.187 0,-47.23 l -6.521,-6.52 c -27.07,-27.07 -70.959,-27.07 -98.029,0 v 0 C -8.243,-40.771 -15.003,-23.73 -15.422,-6.563 -15.621,1.57 -5.75,5.755 0,0"
             style="fill:#e8899e;fill-opacity:1;fill-rule:nonzero;stroke:none"
             id="path591" /></g><g
           id="g593"
           transform="translate(366.7686,222.4775)"><path
             d="m 0,0 c -17.134,-17.149 -44.929,-17.155 -62.07,-0.014 -13.042,13.043 -34.188,13.043 -47.23,0 l -0.108,-0.108 c -13.042,-13.042 -13.042,-34.187 0,-47.23 l 6.521,-6.52 c 27.07,-27.07 70.959,-27.07 98.029,0 13.101,13.101 19.861,30.142 20.28,47.309 C 15.62,1.57 5.75,5.755 0,0"
             style="fill:#e8899e;fill-opacity:1;fill-rule:nonzero;stroke:none"
             id="path595" /></g><g
           id="g597"
           transform="translate(446,288.5)"><path
             d="m 0,0 h -380 c -11.046,0 -20,8.954 -20,20 0,11.046 8.954,20 20,20 H 0 C 11.046,40 20,31.046 20,20 20,8.954 11.046,0 0,0"
             style="fill:#c6c6c6;fill-opacity:1;fill-rule:nonzero;stroke:none"
             id="path599" /></g><g
           id="g601"
           transform="translate(217.1748,308.5)"><path
             d="m 0,0 c 0,11.045 8.954,20 20,20 h -171.175 c -11.046,0 -20,-8.955 -20,-20 0,-11.046 8.954,-20 20,-20 H 20 C 8.954,-20 0,-11.046 0,0"
             style="fill:#9aa3b1;fill-opacity:1;fill-rule:nonzero;stroke:none"
             id="path603" /></g><g
           id="g605"
           transform="translate(351.8223,379.9077)"><path
             d="m 0,0 c 0,-11.045 -8.954,-20 -20,-20 -11.046,0 -20,8.955 -20,20 0,11.046 8.954,20 20,20 C -8.954,20 0,11.046 0,0"
             style="fill:#7e8b9e;fill-opacity:1;fill-rule:nonzero;stroke:none"
             id="path607" /></g><g
           id="g609"
           transform="translate(160.1743,379.9077)"><path
             d="m 0,0 c 0,-11.045 8.955,-20 20,-20 11.046,0 20,8.955 20,20 C 40,11.046 31.046,20 20,20 8.955,20 0,11.046 0,0"
             style="fill:#7e8b9e;fill-opacity:1;fill-rule:nonzero;stroke:none"
             id="path611" /></g><g
           id="g613"
           transform="translate(425.1895,287.7554)"><path
             d="m 0,0 c 7.377,-6.606 12.019,-16.204 12.019,-26.886 0,-7.298 -2.166,-14.09 -5.892,-19.767"
             style="fill:none;stroke:#000000;stroke-width:15;stroke-linecap:round;stroke-linejoin:round;stroke-miterlimit:10;stroke-dasharray:none;stroke-opacity:1"
             id="path615" /></g><g
           id="g617"
           transform="translate(81.0449,240.5566)"><path
             d="m 0,0 c -3.948,5.786 -6.256,12.78 -6.256,20.312 0,10.894 4.827,20.659 12.459,27.274"
             style="fill:none;stroke:#000000;stroke-width:15;stroke-linecap:round;stroke-linejoin:round;stroke-miterlimit:10;stroke-dasharray:none;stroke-opacity:1"
             id="path619" /></g><g
           id="g621"
           transform="translate(355.9727,75.8179)"><path
             d="m 0,0 c 9.036,-13.197 15.527,-28.275 18.766,-44.525 2.456,-12.324 -7.077,-23.793 -19.643,-23.793 h -198.191 c -12.567,0 -22.099,11.469 -19.643,23.793 3.189,16.001 9.53,30.864 18.351,43.916"
             style="fill:none;stroke:#000000;stroke-width:15;stroke-linecap:round;stroke-linejoin:round;stroke-miterlimit:10;stroke-dasharray:none;stroke-opacity:1"
             id="path623" /></g><g
           id="g625"
           transform="translate(401.1328,130.3384)"><path
             d="m 0,0 c -5.743,-3.884 -12.604,-6.243 -19.997,-6.498 0.95,-3.329 1.469,-6.839 1.469,-10.474 0,-21.049 -17.063,-38.111 -38.112,-38.111 -2.591,0 -5.121,0.261 -7.567,0.753 -6.501,-11.719 -18.994,-19.655 -33.346,-19.655 -6.815,0 -13.208,1.797 -18.744,4.932 -6.988,-8.085 -17.31,-13.208 -28.836,-13.208 -11.525,0 -21.847,5.123 -28.836,13.208 -5.536,-3.135 -11.928,-4.932 -18.744,-4.932 -14.351,0 -26.845,7.936 -33.346,19.655 -2.445,-0.492 -4.976,-0.753 -7.567,-0.753 -21.049,0 -38.112,17.062 -38.112,38.111 0,3.635 0.52,7.145 1.469,10.474 -20.43,0.704 -36.779,17.477 -36.779,38.079 0,7.597 2.231,14.669 6.062,20.612 -14.975,5.138 -25.744,19.331 -25.744,36.049 0,21.049 17.063,38.112 38.112,38.112 v 20.678 l 0.715,10.385"
             style="fill:none;stroke:#000000;stroke-width:15;stroke-linecap:round;stroke-linejoin:round;stroke-miterlimit:10;stroke-dasharray:none;stroke-opacity:1"
             id="path627" /></g><g
           id="g629"
           transform="translate(398.7695,287.7554)"><path
             d="m 0,0 0.716,-10.385 v -20.678 c 21.049,0 38.111,-17.063 38.111,-38.112 0,-16.718 -10.768,-30.911 -25.744,-36.049 3.831,-5.943 6.063,-13.015 6.063,-20.612 0,-2.509 -0.243,-4.961 -0.705,-7.334"
             style="fill:none;stroke:#000000;stroke-width:15;stroke-linecap:round;stroke-linejoin:round;stroke-miterlimit:10;stroke-dasharray:none;stroke-opacity:1"
             id="path631" /></g><g
           id="g633"
           transform="translate(446,328.5)"><path
             d="M 0,0 C 11.046,0 20,-8.954 20,-20 20,-31.046 11.046,-40 0,-40 h -380 c -11.046,0 -20,8.954 -20,20 0,11.046 8.954,20 20,20 z"
             style="fill:none;stroke:#000000;stroke-width:15;stroke-linecap:round;stroke-linejoin:round;stroke-miterlimit:10;stroke-dasharray:none;stroke-opacity:1"
             id="path635" /></g><g
           id="g637"
           transform="translate(364.2744,222.4385)"><path
             d="M 0,0 V 64.264"
             style="fill:none;stroke:#000000;stroke-width:15;stroke-linecap:round;stroke-linejoin:round;stroke-miterlimit:10;stroke-dasharray:none;stroke-opacity:1"
             id="path639" /></g><g
           id="g641"
           transform="translate(147.7261,285.5957)"><path
             d="M 0,0 V -63.157"
             style="fill:none;stroke:#000000;stroke-width:15;stroke-linecap:round;stroke-linejoin:round;stroke-miterlimit:10;stroke-dasharray:none;stroke-opacity:1"
             id="path643" /></g><g
           id="g645"
           transform="translate(255.6182,176.147)"><path
             d="M 0,0 C -0.317,-0.346 -0.644,-0.686 -0.979,-1.021 L -7.5,-7.542 c -27.07,-27.07 -70.958,-27.07 -98.028,0 h -10e-4 c -13.101,13.102 -19.861,30.143 -20.28,47.31 -0.198,8.133 9.672,12.318 15.422,6.563 17.135,-17.149 44.929,-17.156 62.07,-0.014 13.043,13.042 34.188,13.042 47.23,0 l 0.108,-0.108 c 0.407,-0.406 0.8,-0.821 1.182,-1.242"
             style="fill:none;stroke:#000000;stroke-width:15;stroke-linecap:round;stroke-linejoin:round;stroke-miterlimit:10;stroke-dasharray:none;stroke-opacity:1"
             id="path647" /></g><g
           id="g649"
           transform="translate(366.7686,222.4775)"><path
             d="m 0,0 c -17.134,-17.149 -44.929,-17.155 -62.07,-0.014 -13.042,13.043 -34.188,13.043 -47.23,0 l -0.108,-0.108 c -13.042,-13.042 -13.042,-34.187 0,-47.23 l 6.521,-6.52 c 27.07,-27.07 70.959,-27.07 98.029,0 13.101,13.101 19.861,30.142 20.28,47.309 C 15.62,1.57 5.75,5.755 0,0 Z"
             style="fill:none;stroke:#000000;stroke-width:15;stroke-linecap:round;stroke-linejoin:round;stroke-miterlimit:10;stroke-dasharray:none;stroke-opacity:1"
             id="path651" /></g><g
           id="g653"
           transform="translate(404.3867,371.418)"><path
             d="m 0,0 c 36.197,9.749 62.838,42.805 62.838,82.082 v 40.494 c 0,5.802 -4.703,10.506 -10.506,10.506 -3.979,0 -7.618,-2.249 -9.397,-5.808 L 23.585,88.576 C 16.386,74.177 1.67,65.082 -14.428,65.082 h -36.98"
             style="fill:none;stroke:#000000;stroke-width:15;stroke-linecap:round;stroke-linejoin:round;stroke-miterlimit:10;stroke-dasharray:none;stroke-opacity:1"
             id="path655" /></g><g
           id="g657"
           transform="translate(68.9556,394.1196)"><path
             d="M 0,0 C 10.482,-10.734 23.783,-18.705 38.706,-22.714"
             style="fill:none;stroke:#000000;stroke-width:15;stroke-linecap:round;stroke-linejoin:round;stroke-miterlimit:10;stroke-dasharray:none;stroke-opacity:1"
             id="path659" /></g><g
           id="g661"
           transform="translate(158.8726,436.5)"><path
             d="m 0,0 h -36.831 c -16.098,0 -30.814,9.095 -38.013,23.494 l -19.35,38.698 c -1.779,3.559 -5.417,5.808 -9.397,5.808 -5.803,0 -10.507,-4.704 -10.507,-10.506 V 17 c 0,-12.304 2.615,-23.998 7.319,-34.556"
             style="fill:none;stroke:#000000;stroke-width:15;stroke-linecap:round;stroke-linejoin:round;stroke-miterlimit:10;stroke-dasharray:none;stroke-opacity:1"
             id="path663" /></g><g
           id="g665"
           transform="translate(235.0986,467.1475)"><path
             d="M 0,0 C -71.279,-9.299 -127.813,-65.512 -137.599,-136.638"
             style="fill:none;stroke:#000000;stroke-width:15;stroke-linecap:round;stroke-linejoin:round;stroke-miterlimit:10;stroke-dasharray:none;stroke-opacity:1"
             id="path667" /></g><g
           id="g669"
           transform="translate(414.5273,330.2876)"><path
             d="M 0,0 C -9.698,71.23 -66.274,127.55 -137.628,136.859"
             style="fill:none;stroke:#000000;stroke-width:15;stroke-linecap:round;stroke-linejoin:round;stroke-miterlimit:10;stroke-dasharray:none;stroke-opacity:1"
             id="path671" /></g><g
           id="g673"
           transform="translate(276,329.2554)"><path
             d="m 0,0 v 155.245 c 0,11.046 -8.954,20 -20,20 -11.046,0 -20,-8.954 -20,-20 V 0.255"
             style="fill:none;stroke:#000000;stroke-width:15;stroke-linecap:round;stroke-linejoin:round;stroke-miterlimit:10;stroke-dasharray:none;stroke-opacity:1"
             id="path675" /></g><g
           id="g677"
           transform="translate(351.8223,379.9077)"><path
             d="m 0,0 c 0,-11.045 -8.954,-20 -20,-20 -11.046,0 -20,8.955 -20,20 0,11.046 8.954,20 20,20 C -8.954,20 0,11.046 0,0 Z"
             style="fill:none;stroke:#000000;stroke-width:15;stroke-linecap:round;stroke-linejoin:round;stroke-miterlimit:10;stroke-dasharray:none;stroke-opacity:1"
             id="path679" /></g><g
           id="g681"
           transform="translate(160.1743,379.9077)"><path
             d="m 0,0 c 0,-11.045 8.955,-20 20,-20 11.046,0 20,8.955 20,20 C 40,11.046 31.046,20 20,20 8.955,20 0,11.046 0,0 Z"
             style="fill:none;stroke:#000000;stroke-width:15;stroke-linecap:round;stroke-linejoin:round;stroke-miterlimit:10;stroke-dasharray:none;stroke-opacity:1"
             id="path683" /></g></g></g></g></svg>
