<?xml version="1.0" encoding="UTF-8" standalone="no"?>
<!-- Created with Inkscape (http://www.inkscape.org/) -->

<svg
   version="1.1"
   id="svg4488"
   xml:space="preserve"
   width="682.66669"
   height="682.66669"
   viewBox="0 0 682.66669 682.66669"
   xmlns="http://www.w3.org/2000/svg"
   xmlns:svg="http://www.w3.org/2000/svg"><defs
     id="defs4492"><clipPath
       clipPathUnits="userSpaceOnUse"
       id="clipPath4502"><path
         d="M 0,512 H 512 V 0 H 0 Z"
         id="path4500" /></clipPath></defs><g
     id="g4494"
     transform="matrix(1.3333333,0,0,-1.3333333,0,682.66667)"><g
       id="g4496"><g
         id="g4498"
         clip-path="url(#clipPath4502)"><g
           id="g4504"
           transform="translate(115.5195,298.0815)"><path
             d="M 0,0 V -24.307 C 0,-30.51 5.029,-35.54 11.232,-35.54 H 38.704 V 11.233 H 11.232 C 5.029,11.233 0,6.204 0,0"
             style="fill:#dcd2cd;fill-opacity:1;fill-rule:nonzero;stroke:none"
             id="path4506" /></g><g
           id="g4508"
           transform="translate(357.7764,309.3145)"><path
             d="m 0,0 v -46.772 h 27.472 c 6.203,0 11.232,5.029 11.232,11.232 v 24.307 C 38.704,-5.029 33.675,0 27.472,0 Z"
             style="fill:#dcd2cd;fill-opacity:1;fill-rule:nonzero;stroke:none"
             id="path4510" /></g><g
           id="g4512"
           transform="translate(357.7949,445.5288)"><path
             d="m 0,0 c 9.865,8.916 16.388,21.307 18.935,34.409 0.323,1.662 -1.357,3 -2.889,2.279 -17.183,-8.076 -38.277,-3.665 -56.241,3.434 -19.227,7.597 -38.049,18.106 -58.709,18.814 -15.348,0.526 -31,-4.816 -42.17,-15.353 -11.17,-10.538 -17.472,-26.308 -15.688,-41.56 1.784,-15.252 11.978,-29.465 26.222,-35.203 l 86.531,-22.867 c 15.939,-1.8 32.459,2.074 45.936,10.773 12.401,8.005 22.165,22.053 27.478,36.141 0.572,1.513 -0.773,3.04 -2.359,2.721 C 18.378,-8.154 8.79,-6.812 0.556,-3.427 -0.838,-2.854 -1.118,-1.011 0,0"
             style="fill:#d97b7b;fill-opacity:1;fill-rule:nonzero;stroke:none"
             id="path4514" /></g><g
           id="g4516"
           transform="translate(384.8408,439.1167)"><path
             d="m 0,0 c -4.213,-0.847 -8.642,-0.959 -13.026,-0.469 -3.65,-4.083 -7.702,-7.686 -12.093,-10.52 -13.477,-8.699 -29.997,-12.573 -45.936,-10.773 l -86.531,22.866 c -11.543,4.65 -20.423,14.867 -24.327,26.691 -1.934,-6.251 -2.655,-12.851 -1.895,-19.36 1.785,-15.252 11.978,-29.465 26.222,-35.203 l 86.531,-22.867 c 15.939,-1.8 32.459,2.075 45.936,10.773 12.402,8.006 22.165,22.053 27.478,36.141 C 2.931,-1.208 1.586,0.319 0,0"
             style="fill:#d16161;fill-opacity:1;fill-rule:nonzero;stroke:none"
             id="path4518" /></g><g
           id="g4520"
           transform="translate(236.3516,448.084)"><path
             d="M 0,0 V -40.279 H 39.297 V 0 C 39.297,10.851 30.5,19.648 19.648,19.648 8.797,19.648 0,10.851 0,0"
             style="fill:#655e67;fill-opacity:1;fill-rule:nonzero;stroke:none"
             id="path4522" /></g><g
           id="g4524"
           transform="translate(246.8789,429.9033)"><path
             d="m 0,0 h 18.242 c 47.445,0 85.906,-38.461 85.906,-85.906 V -113.76 H -85.906 v 27.854 C -85.906,-38.461 -47.444,0 0,0"
             style="fill:#dcd2cd;fill-opacity:1;fill-rule:nonzero;stroke:none"
             id="path4526" /></g><g
           id="g4528"
           transform="translate(265.1211,429.9033)"><path
             d="m 0,0 c 0,0 -20.868,-0.041 -22.172,-0.099 45.619,-2.055 81.977,-39.68 81.977,-85.807 v -27.854 h 26.101 v 27.854 C 85.906,-38.461 47.444,0 0,0"
             style="fill:#c8beb9;fill-opacity:1;fill-rule:nonzero;stroke:none"
             id="path4530" /></g><g
           id="g4532"
           transform="translate(275.3936,202.9443)"><path
             d="M 0,0 C -12.172,1.585 -26.615,1.585 -38.787,0 -181.021,-18.531 -251.081,-195.444 -154.704,-195.444 H 115.917 C 212.294,-195.444 142.234,-18.531 0,0"
             style="fill:#f0e9e6;fill-opacity:1;fill-rule:nonzero;stroke:none"
             id="path4534" /></g><g
           id="g4536"
           transform="translate(372.291,160.4434)"><path
             d="m 0,0 -204.749,-152.943 h 52.489 L 18.921,-25.074 0.498,-0.411 C 0.332,-0.274 0.167,-0.136 0,0"
             style="fill:#766d78;fill-opacity:1;fill-rule:nonzero;stroke:none"
             id="path4538" /></g><g
           id="g4540"
           transform="translate(256,126.2188)"><path
             d="M 0,0 C 49.502,0 92.582,14.304 114.836,35.403 89.142,56.055 56.76,71.857 19.394,76.726 7.222,78.311 -7.222,78.311 -19.394,76.726 -56.76,71.857 -89.142,56.055 -114.836,35.403 -92.582,14.304 -49.502,0 0,0"
             style="fill:#dcd2cd;fill-opacity:1;fill-rule:nonzero;stroke:none"
             id="path4542" /></g><g
           id="g4544"
           transform="translate(300.9014,366.3237)"><path
             d="m 0,0 h -89.803 c -1.535,0 -3.05,-0.342 -4.435,-1.002 l -52.595,-25.052 c -1.795,-0.855 -2.938,-2.667 -2.938,-4.655 v -94.956 c 0,-3.178 1.464,-6.178 3.97,-8.132 l 78.71,-61.389 c 1.812,-1.413 4.044,-2.18 6.342,-2.18 h 31.695 c 2.298,0 4.531,0.767 6.342,2.18 l 78.71,61.389 c 2.506,1.954 3.971,4.954 3.971,8.132 v 94.956 c 0,1.988 -1.144,3.8 -2.939,4.655 L 4.436,-1.002 C 3.05,-0.342 1.535,0 0,0"
             style="fill:#f0e9e6;fill-opacity:1;fill-rule:nonzero;stroke:none"
             id="path4546" /></g><g
           id="g4548"
           transform="translate(399.6562,23.4561)"><path
             d="m 0,0 55.633,4.141 c 7.43,0.553 13.098,6.861 12.856,14.308 -0.938,28.845 -9.369,97.351 -65.906,134.566 -4.146,2.73 -6.537,7.456 -6.187,12.408 0.542,7.709 1.084,14.901 1.55,20.899 0.581,7.476 -7.404,12.559 -13.944,8.892 -20.31,-11.388 -55.565,-33.906 -72.497,-61.068 -6.826,-10.949 -7.141,-24.753 -0.952,-36.075 1.698,-3.108 3.291,-5.948 4.778,-8.54 7.735,-13.484 24.853,-18.266 38.451,-10.734 3.747,2.075 8.46,0.994 10.907,-2.521 8.376,-12.029 25.478,-39.887 24.186,-65.22 C -11.446,4.746 -6.3,-0.469 0,0"
             style="fill:#f7f3f1;fill-opacity:1;fill-rule:nonzero;stroke:none"
             id="path4550" /></g><g
           id="g4552"
           transform="translate(402.2393,176.4712)"><path
             d="m 0,0 c -4.146,2.729 -6.537,7.456 -6.187,12.408 0.542,7.709 1.084,14.901 1.55,20.899 0.581,7.476 -7.404,12.559 -13.944,8.892 -4.477,-2.511 -9.68,-5.563 -15.252,-9.085 -0.001,-0.011 0,-0.023 -0.001,-0.035 -0.466,-6.133 -1.007,-13.486 -1.551,-21.369 -0.348,-5.064 2.042,-9.897 6.189,-12.687 56.537,-38.053 64.967,-108.101 65.906,-137.594 0.154,-4.875 -2.119,-9.263 -5.72,-11.946 l 22.06,1.643 c 7.43,0.553 13.098,6.861 12.856,14.308 C 64.968,-105.721 56.537,-37.215 0,0"
             style="fill:#ebe1dc;fill-opacity:1;fill-rule:nonzero;stroke:none"
             id="path4554" /></g><g
           id="g4556"
           transform="translate(329.4141,100.6016)"><path
             d="M 0,0 C 0.91,-0.351 1.838,-0.652 2.779,-0.908 1.909,-0.441 0.969,-0.133 0,0"
             style="fill:#ebe1dc;fill-opacity:1;fill-rule:nonzero;stroke:none"
             id="path4558" /></g><g
           id="g4560"
           transform="translate(112.3438,23.4561)"><path
             d="m 0,0 -55.633,4.141 c -7.43,0.553 -13.098,6.861 -12.856,14.308 0.938,28.845 9.369,97.351 65.906,134.566 4.146,2.73 6.537,7.456 6.187,12.408 -0.542,7.709 -1.084,14.901 -1.55,20.899 -0.581,7.476 7.404,12.559 13.944,8.892 20.31,-11.388 55.565,-33.906 72.497,-61.068 6.826,-10.949 7.141,-24.753 0.952,-36.075 -1.698,-3.108 -3.291,-5.948 -4.778,-8.54 C 76.934,76.047 59.816,71.265 46.218,78.797 42.471,80.872 37.758,79.791 35.311,76.276 26.935,64.247 9.833,36.389 11.125,11.056 11.446,4.746 6.3,-0.469 0,0"
             style="fill:#f7f3f1;fill-opacity:1;fill-rule:nonzero;stroke:none"
             id="path4562" /></g><g
           id="g4564"
           transform="translate(256.8203,99.7407)"><path
             d="m 0,0 -18.197,-13.593 c -1.825,-1.364 -2.2,-3.949 -0.837,-5.774 l 38.363,-51.357 c 1.363,-1.825 3.948,-2.199 5.774,-0.836 L 43.3,-57.967 c 1.825,1.363 2.2,3.948 0.836,5.774 L 5.773,-0.836 C 4.41,0.989 1.825,1.363 0,0"
             style="fill:#f3d69e;fill-opacity:1;fill-rule:nonzero;stroke:none"
             id="path4566" /></g><g
           id="g4568"
           transform="translate(151.1289,262.542)"><path
             d="m 0,0 h -24.38 c -6.2,0 -11.23,5.03 -11.23,11.23 v 24.311 c 0,6.209 5.03,11.23 11.23,11.23 H 0"
             style="fill:none;stroke:#000000;stroke-width:15;stroke-linecap:round;stroke-linejoin:round;stroke-miterlimit:10;stroke-dasharray:none;stroke-opacity:1"
             id="path4570" /></g><g
           id="g4572"
           transform="translate(360.8711,309.3125)"><path
             d="m 0,0 h 24.38 c 6.2,0 11.23,-5.02 11.23,-11.23 v -24.311 c 0,-6.199 -5.03,-11.23 -11.23,-11.23 H 0"
             style="fill:none;stroke:#000000;stroke-width:15;stroke-linecap:round;stroke-linejoin:round;stroke-miterlimit:10;stroke-dasharray:none;stroke-opacity:1"
             id="path4574" /></g><g
           id="g4576"
           transform="translate(337.1611,390.8232)"><path
             d="m 0,0 c 7.989,1.8 15.68,4.99 22.56,9.43 12.4,8.01 22.169,22.06 27.48,36.15 0.57,1.51 -0.77,3.04 -2.36,2.72 -8.67,-1.75 -18.25,-0.4 -26.491,2.98 -1.389,0.58 -1.669,2.42 -0.549,3.43 9.86,8.911 16.38,21.311 18.93,34.411 0.32,1.66 -1.36,3 -2.89,2.279 -17.18,-8.079 -38.281,-3.67 -56.241,3.431 -19.23,7.6 -38.05,18.11 -58.71,18.81 -15.35,0.53 -31,-4.81 -42.17,-15.35 -11.17,-10.541 -17.47,-26.311 -15.691,-41.561 1.08,-9.2 5.21,-18.01 11.45,-24.82"
             style="fill:none;stroke:#000000;stroke-width:15;stroke-linecap:round;stroke-linejoin:round;stroke-miterlimit:10;stroke-dasharray:none;stroke-opacity:1"
             id="path4578" /></g><g
           id="g4580"
           transform="translate(275.6504,429.2637)"><path
             d="m 0,0 v 18.82 c 0,10.86 -8.8,19.65 -19.65,19.65 -10.85,0 -19.651,-8.79 -19.651,-19.65 V 0"
             style="fill:none;stroke:#000000;stroke-width:15;stroke-linecap:round;stroke-linejoin:round;stroke-miterlimit:10;stroke-dasharray:none;stroke-opacity:1"
             id="path4582" /></g><g
           id="g4584"
           transform="translate(351.0312,343.5625)"><path
             d="m 0,0 v 0.44 c 0,47.441 -38.461,85.901 -85.911,85.901 h -18.24 c -47.451,0 -85.911,-38.46 -85.911,-85.901 V 0"
             style="fill:none;stroke:#000000;stroke-width:15;stroke-linecap:round;stroke-linejoin:round;stroke-miterlimit:10;stroke-dasharray:none;stroke-opacity:1"
             id="path4586" /></g><g
           id="g4588"
           transform="translate(342.251,98.7905)"><path
             d="M 0,0 -51.07,-38.15"
             style="fill:none;stroke:#000000;stroke-width:15;stroke-linecap:round;stroke-linejoin:round;stroke-miterlimit:10;stroke-dasharray:none;stroke-opacity:1"
             id="path4590" /></g><g
           id="g4592"
           transform="translate(313.1309,116.251)"><path
             d="M 0,0 -40.761,-30.44"
             style="fill:none;stroke:#000000;stroke-width:15;stroke-linecap:round;stroke-linejoin:round;stroke-miterlimit:10;stroke-dasharray:none;stroke-opacity:1"
             id="path4594" /></g><g
           id="g4596"
           transform="translate(220.0293,7.5)"><path
             d="M 0,0 46.341,34.61"
             style="fill:none;stroke:#000000;stroke-width:15;stroke-linecap:round;stroke-linejoin:round;stroke-miterlimit:10;stroke-dasharray:none;stroke-opacity:1"
             id="path4598" /></g><g
           id="g4600"
           transform="translate(247.5703,67.2803)"><path
             d="M 0,0 -80.031,-59.78"
             style="fill:none;stroke:#000000;stroke-width:15;stroke-linecap:round;stroke-linejoin:round;stroke-miterlimit:10;stroke-dasharray:none;stroke-opacity:1"
             id="path4602" /></g><g
           id="g4604"
           transform="translate(205.4492,131.4912)"><path
             d="m 0,0 c 15.561,-3.39 32.631,-5.27 50.551,-5.27 17.92,0 34.99,1.88 50.551,5.27"
             style="fill:none;stroke:#000000;stroke-width:15;stroke-linecap:round;stroke-linejoin:round;stroke-miterlimit:10;stroke-dasharray:none;stroke-opacity:1"
             id="path4606" /></g><g
           id="g4608"
           transform="translate(82.2891,25.7002)"><path
             d="M 0,0 C 6.76,-11.27 19.319,-18.2 38.399,-18.2 H 232.401"
             style="fill:none;stroke:#000000;stroke-width:15;stroke-linecap:round;stroke-linejoin:round;stroke-miterlimit:10;stroke-dasharray:none;stroke-opacity:1"
             id="path4610" /></g><g
           id="g4612"
           transform="translate(202.8594,195.2817)"><path
             d="M 0,0 C -8.97,-2.94 -17.56,-6.5 -25.74,-10.58"
             style="fill:none;stroke:#000000;stroke-width:15;stroke-linecap:round;stroke-linejoin:round;stroke-miterlimit:10;stroke-dasharray:none;stroke-opacity:1"
             id="path4614" /></g><g
           id="g4616"
           transform="translate(349.6904,7.5)"><path
             d="m 0,0 h 41.621 c 19.08,0 31.64,6.93 38.4,18.2"
             style="fill:none;stroke:#000000;stroke-width:15;stroke-linecap:round;stroke-linejoin:round;stroke-miterlimit:10;stroke-dasharray:none;stroke-opacity:1"
             id="path4618" /></g><g
           id="g4620"
           transform="translate(334.8809,184.7017)"><path
             d="M 0,0 C -8.181,4.08 -16.771,7.64 -25.74,10.58"
             style="fill:none;stroke:#000000;stroke-width:15;stroke-linecap:round;stroke-linejoin:round;stroke-miterlimit:10;stroke-dasharray:none;stroke-opacity:1"
             id="path4622" /></g><g
           id="g4624"
           transform="translate(300.9023,366.3267)"><path
             d="m 0,0 h -89.805 c -1.534,0 -3.049,-0.342 -4.434,-1.002 l -52.595,-25.052 c -1.796,-0.856 -2.939,-2.667 -2.939,-4.655 v -94.957 c 0,-3.178 1.464,-6.178 3.97,-8.132 l 78.711,-61.389 c 1.812,-1.413 4.044,-2.181 6.342,-2.181 h 31.695 c 2.298,0 4.531,0.768 6.342,2.181 l 78.711,61.389 c 2.506,1.954 3.971,4.954 3.971,8.132 v 94.957 c 0,1.988 -1.144,3.799 -2.94,4.655 L 4.435,-1.002 C 3.049,-0.342 1.534,0 0,0 Z"
             style="fill:none;stroke:#000000;stroke-width:15;stroke-linecap:round;stroke-linejoin:round;stroke-miterlimit:10;stroke-dasharray:none;stroke-opacity:1"
             id="path4626" /></g><g
           id="g4628"
           transform="translate(189.0127,296.2661)"><path
             d="M 0,0 V -22.687"
             style="fill:none;stroke:#000000;stroke-width:15;stroke-linecap:round;stroke-linejoin:round;stroke-miterlimit:10;stroke-dasharray:none;stroke-opacity:1"
             id="path4630" /></g><g
           id="g4632"
           transform="translate(222.5059,309.8784)"><path
             d="M 0,0 V -49.91"
             style="fill:none;stroke:#000000;stroke-width:15;stroke-linecap:round;stroke-linejoin:round;stroke-miterlimit:10;stroke-dasharray:none;stroke-opacity:1"
             id="path4634" /></g><g
           id="g4636"
           transform="translate(255.999,330.6543)"><path
             d="M 0,0 V -91.462"
             style="fill:none;stroke:#000000;stroke-width:15;stroke-linecap:round;stroke-linejoin:round;stroke-miterlimit:10;stroke-dasharray:none;stroke-opacity:1"
             id="path4638" /></g><g
           id="g4640"
           transform="translate(289.4932,309.8784)"><path
             d="M 0,0 V -49.91"
             style="fill:none;stroke:#000000;stroke-width:15;stroke-linecap:round;stroke-linejoin:round;stroke-miterlimit:10;stroke-dasharray:none;stroke-opacity:1"
             id="path4642" /></g><g
           id="g4644"
           transform="translate(322.9873,296.2661)"><path
             d="M 0,0 V -22.687"
             style="fill:none;stroke:#000000;stroke-width:15;stroke-linecap:round;stroke-linejoin:round;stroke-miterlimit:10;stroke-dasharray:none;stroke-opacity:1"
             id="path4646" /></g><g
           id="g4648"
           transform="translate(399.6582,23.4561)"><path
             d="m 0,0 55.633,4.141 c 7.43,0.553 13.098,6.861 12.856,14.309 -0.938,28.844 -9.369,97.351 -65.907,134.567 -4.146,2.729 -6.537,7.456 -6.187,12.407 0.542,7.71 1.084,14.902 1.55,20.899 0.581,7.476 -7.404,12.56 -13.944,8.892 -20.31,-11.388 -55.564,-33.906 -72.498,-61.068 -6.825,-10.949 -7.141,-24.753 -0.952,-36.075 1.698,-3.108 3.292,-5.948 4.778,-8.54 7.736,-13.485 24.854,-18.266 38.452,-10.734 3.746,2.075 8.46,0.994 10.907,-2.521 C -26.936,64.248 -9.834,36.39 -11.126,11.056 -11.447,4.746 -6.301,-0.469 0,0 Z"
             style="fill:none;stroke:#000000;stroke-width:15;stroke-linecap:round;stroke-linejoin:round;stroke-miterlimit:10;stroke-dasharray:none;stroke-opacity:1"
             id="path4650" /></g><g
           id="g4652"
           transform="translate(388.6064,37.5137)"><path
             d="M 0,0 C 23.638,13.881 50.729,21.843 78.11,22.987"
             style="fill:none;stroke:#000000;stroke-width:15;stroke-linecap:round;stroke-linejoin:round;stroke-miterlimit:10;stroke-dasharray:none;stroke-opacity:1"
             id="path4654" /></g><g
           id="g4656"
           transform="translate(378.9023,74.6606)"><path
             d="M 0,0 C 19.389,20.771 45.717,35.033 73.676,40.107"
             style="fill:none;stroke:#000000;stroke-width:15;stroke-linecap:round;stroke-linejoin:round;stroke-miterlimit:10;stroke-dasharray:none;stroke-opacity:1"
             id="path4658" /></g><g
           id="g4660"
           transform="translate(98.458,168.1211)"><path
             d="m 0,0 c 3.535,2.924 7.298,5.716 11.302,8.352 4.146,2.729 6.537,7.456 6.187,12.407 -0.543,7.71 -1.085,14.902 -1.551,20.899 -0.581,7.476 7.405,12.56 13.945,8.892 20.309,-11.388 55.564,-33.906 72.498,-61.068 6.825,-10.949 7.14,-24.753 0.952,-36.075 -1.698,-3.108 -3.292,-5.949 -4.778,-8.54 -7.737,-13.485 -24.854,-18.266 -38.452,-10.734 -3.747,2.075 -8.46,0.993 -10.908,-2.521 -8.376,-12.029 -25.477,-39.887 -24.185,-65.221 0.321,-6.31 -4.825,-11.525 -11.126,-11.056 l -55.633,4.141 c -7.431,0.553 -13.099,6.861 -12.856,14.309 0.692,21.262 5.455,64.076 30.556,100.021"
             style="fill:none;stroke:#000000;stroke-width:15;stroke-linecap:round;stroke-linejoin:round;stroke-miterlimit:10;stroke-dasharray:none;stroke-opacity:1"
             id="path4662" /></g><g
           id="g4664"
           transform="translate(45.2832,60.501)"><path
             d="M 0,0 C 27.381,-1.145 54.473,-9.106 78.11,-22.987"
             style="fill:none;stroke:#000000;stroke-width:15;stroke-linecap:round;stroke-linejoin:round;stroke-miterlimit:10;stroke-dasharray:none;stroke-opacity:1"
             id="path4666" /></g><g
           id="g4668"
           transform="translate(59.4219,114.7676)"><path
             d="M 0,0 C 27.959,-5.074 54.288,-19.336 73.676,-40.107"
             style="fill:none;stroke:#000000;stroke-width:15;stroke-linecap:round;stroke-linejoin:round;stroke-miterlimit:10;stroke-dasharray:none;stroke-opacity:1"
             id="path4670" /></g><g
           id="g4672"
           transform="translate(256.8203,99.7412)"><path
             d="m 0,0 -18.198,-13.593 c -1.825,-1.364 -2.199,-3.949 -0.836,-5.774 l 38.363,-51.357 c 1.363,-1.825 3.948,-2.2 5.774,-0.837 l 18.198,13.594 c 1.825,1.363 2.199,3.948 0.836,5.773 L 5.773,-0.836 C 4.41,0.989 1.825,1.363 0,0 Z"
             style="fill:none;stroke:#000000;stroke-width:15;stroke-linecap:round;stroke-linejoin:round;stroke-miterlimit:10;stroke-dasharray:none;stroke-opacity:1"
             id="path4674" /></g></g></g></g></svg>
