<svg id="Capa_1" enable-background="new 0 0 512 512" height="512" viewBox="0 0 512 512" width="512" xmlns="http://www.w3.org/2000/svg"><g><path d="m344.671 33.237c0-11.88-9.631-21.511-21.51-21.511h-28.667c-5.476 0-10.255 2.942-12.869 7.328-.093.157-.28.232-.456.184s-.299-.208-.299-.391v-.098c0-10.355-8.394-18.749-18.748-18.749h-63.156c-17.473 0-31.638 14.165-31.638 31.638v57.671c0 5.476 4.439 9.914 9.914 9.914h102.263 1.365 48.252c8.587 0 15.549-6.962 15.549-15.549z" fill="#544f57"/><g><path d="m344.671 33.237c0-11.88-9.631-21.511-21.511-21.511h-20.87c11.88 0 21.51 9.631 21.51 21.511v50.437c0 8.587-6.962 15.549-15.549 15.549h20.871c8.587 0 15.549-6.962 15.549-15.549z" fill="#454045"/></g><path d="m445.153 51.004c-8.268-4.724-18.985-1.367-23.553 6.988l-63.921 116.904c-2.048 3.745-5.976 6.074-10.244 6.074h-182.87c-4.268 0-8.197-2.329-10.244-6.074l-64.135-117.295c-4.501-8.232-14.824-11.257-23.056-6.756-8.72 0-14.257 9.338-10.073 16.989l89.56 163.796c4.225 7.727 6.439 16.393 6.439 25.199v128.882h205.888v-128.882c0-8.807 2.214-17.472 6.439-25.199l86.242-157.728c4.45-8.137 1.546-18.317-6.472-22.898z" fill="#75cef9"/><g fill="#6bbef6"><path d="m164.565 180.97c-4.268 0-8.196-2.329-10.244-6.074l-64.135-117.294c-4.501-8.233-14.824-11.257-23.056-6.756-8.658 0-14.277 9.302-10.074 16.989l16.891 30.893c1.223-.46 3.687-1.88 3.583-1.824 6.244-3.414 14.074-1.12 17.489 5.125l39.843 72.868c2.048 3.745 5.976 6.074 10.245 6.074h19.458z"/><path d="m445.153 51.004c-8.206-4.688-18.979-1.377-23.553 6.988l-11.971 21.894 3.526 1.928c6.244 3.414 8.539 11.245 5.124 17.489l-72.354 132.327c-4.225 7.727-6.439 16.392-6.439 25.199v5.524c0 17.363-14.075 31.438-31.438 31.438h-154.992v91.92h205.888v-128.882c0-8.807 2.214-17.472 6.439-25.199l86.242-157.728c4.45-8.137 1.546-18.317-6.472-22.898z"/></g><path d="m256 240.179c-15.082 0-27.309-12.226-27.309-27.309v-34.99h54.617v34.99c.001 15.082-12.226 27.309-27.308 27.309z" fill="#f1b986"/><path d="m276.903 59.746c-.297-.527-.828-.88-1.429-.949s-1.199.154-1.607.6c-7.196 7.862-35.882 34.306-86.08 20.837-.567-.152-1.172-.032-1.637.325-.466.357-.74.91-.74 1.497v76.619c0 16.295 13.21 29.505 29.505 29.505h82.17c16.295 0 29.505-13.21 29.505-29.505v-78.724c0-.568-.256-1.105-.696-1.464-.441-.358-1.019-.499-1.575-.383-30.435 6.311-43.617-11.605-47.416-18.358z" fill="#f1d0a5"/><path d="m322.465 78.45c-29.152 5.222-41.816-12.137-45.545-18.73-.298-.526-.829-.878-1.43-.946-.6-.068-1.198.155-1.605.602-7.164 7.836-35.857 34.338-86.099 20.858-.567-.152-1.172-.032-1.637.325-.466.357-.74.91-.74 1.497v12.675c42.817 12.401 68.675-.257 80.034-8.597 3.923-2.88 9.229-2.898 13.141-.004 4.364 3.229 11.12 6.828 20.667 8.277 5.341.811 9.258 5.461 9.258 10.864v53.404c0 16.295-13.21 29.505-29.505 29.505h18.081c16.295 0 29.505-13.21 29.505-29.505v-78.73c0-.566-.255-1.102-.693-1.461-.438-.358-1.015-.503-1.57-.39-.6.123-1.227.243-1.862.356z" fill="#f1b986"/><path d="m84.031 40.426c-.197.108-.443.035-.551-.161l-12.074-22.082c-4.014-7.34-13.218-10.037-20.558-6.024l-14.38 7.863c-7.34 4.014-10.037 13.218-6.024 20.558l19.232 35.174c2.834 5.184 9.334 7.088 14.518 4.254l36.067-19.72c6.109-3.34 8.353-11 5.013-17.109-3.34-6.109-11-8.353-17.109-5.013z" fill="#f1d0a5"/><path d="m427.969 40.426c.197.108.443.035.551-.161l12.074-22.082c4.014-7.34 13.218-10.037 20.558-6.024l14.38 7.863c7.34 4.014 10.037 13.218 6.024 20.558l-19.232 35.174c-2.834 5.184-9.334 7.088-14.518 4.254l-36.067-19.72c-6.109-3.34-8.353-11-5.013-17.109 3.34-6.109 11-8.353 17.109-5.013z" fill="#f1d0a5"/><g><g><path d="m228.691 130.457c-4.267 0-7.725-3.458-7.725-7.725v-10.027c0-4.267 3.458-7.725 7.725-7.725s7.725 3.458 7.725 7.725v10.027c0 4.267-3.458 7.725-7.725 7.725z" fill="#454045"/></g><g><path d="m283.308 130.457c-4.267 0-7.725-3.458-7.725-7.725v-10.027c0-4.267 3.458-7.725 7.725-7.725s7.725 3.458 7.725 7.725v10.027c0 4.267-3.458 7.725-7.725 7.725z" fill="#454045"/></g></g><path d="m368.528 470.722-21.079 20.666h-187.92l-16.057-20.666c-7.859 0-14.229-6.371-14.229-14.229v-128.315c0-7.859 6.371-14.229 14.229-14.229h225.057c7.859 0 14.229 6.371 14.229 14.229v128.315c0 7.858-6.371 14.229-14.23 14.229z" fill="#544f57"/><path d="m368.528 313.949h-3.096v125.219c0 7.859-6.371 14.229-14.229 14.229h-221.961v3.096c0 7.858 6.371 14.229 14.229 14.229h225.057c7.859 0 14.229-6.371 14.229-14.229v-128.315c.001-7.859-6.37-14.229-14.229-14.229z" fill="#454045"/><path d="m386.419 470.722h-260.838c-6.19 0-11.209 5.018-11.209 11.209v18.861c0 6.19 5.018 11.209 11.209 11.209h260.837c6.19 0 11.209-5.018 11.209-11.209v-18.861c0-6.191-5.018-11.209-11.208-11.209z" fill="#544f57"/><path d="m386.419 470.722h-16.071c6.19 0 11.209 5.018 11.209 11.209v18.861c0 6.19-5.018 11.209-11.209 11.209h16.071c6.19 0 11.209-5.018 11.209-11.209v-18.861c-.001-6.191-5.019-11.209-11.209-11.209z" fill="#454045"/><path d="m253.575 428.247-24.583-34.166c-.75-1.042-.75-2.448 0-3.49l24.583-34.166c1.192-1.657 3.658-1.657 4.851 0l24.583 34.166c.75 1.042.75 2.448 0 3.49l-24.583 34.166c-1.193 1.657-3.659 1.657-4.851 0z" fill="#f4fbff"/><path d="m283.008 390.59-24.583-34.166c-1.192-1.657-3.658-1.657-4.851 0l-6.424 8.929 18.159 25.238c.75 1.042.75 2.448 0 3.49l-18.159 25.238 6.424 8.929c1.192 1.657 3.658 1.657 4.851 0l24.583-34.166c.751-1.044.751-2.449 0-3.492z" fill="#e4f6ff"/><g><path d="m256 168.929c-15.816 0-28.204-9.412-28.204-21.429 0-4.267 3.458-7.725 7.725-7.725s7.725 3.458 7.725 7.725c0 2.108 4.843 5.98 12.755 5.98s12.754-3.871 12.754-5.98c0-4.267 3.458-7.725 7.725-7.725s7.725 3.458 7.725 7.725c-.001 12.016-12.39 21.429-28.205 21.429z" fill="#da4a54"/></g></g></svg>