<svg id="Capa_1" enable-background="new 0 0 513 513" height="512" viewBox="0 0 513 513" width="512" xmlns="http://www.w3.org/2000/svg"><g><g><path d="m316.553 104.014c-6.544 0-12.977-1.681-18.684-4.883l-86.502-48.525c-5.707-3.201-12.141-4.883-18.684-4.883h-146.994c-21.091 0-38.189 17.098-38.189 38.189v345.176c0 21.091 17.098 38.189 38.189 38.189h421.622c21.091 0 38.189-17.098 38.189-38.189v-286.885c0-21.091-17.098-38.189-38.189-38.189z" fill="#fee97d"/><g><path d="m132.306 417.799c-28.64 0-51.857-23.217-51.857-51.857v-320.219h-34.76c-21.091 0-38.189 17.098-38.189 38.189v345.176c0 21.091 17.098 38.189 38.189 38.189h421.622c21.091 0 38.189-17.098 38.189-38.189v-11.288h-373.194z" fill="#ffde55"/><circle cx="252.279" cy="275.345" fill="#fef0ae" r="132.024"/><circle cx="255.419" cy="276.588" fill="#f9f7f8" r="102.024"/><path d="m383.602 174.585-22.238-22.681c-1.592-1.624-4.199-1.65-5.823-.057l-103.593 101.572c-1.651 1.619-4.312 1.561-5.891-.128l-15.923-17.031c-1.553-1.661-4.159-1.749-5.82-.196l-23.203 21.692c-1.661 1.553-1.749 4.159-.196 5.82l32.79 35.074c1.172 1.254 2.501 2.319 3.927 3.221h21.389c1.176-.746 2.286-1.607 3.296-2.598l121.229-118.864c1.623-1.592 1.649-4.2.056-5.824z" fill="#86e8d0"/><path d="m150.046 146.713c-4.194 7.054-10.019 12.907-17.589 17.476-2.943 1.777-2.946 6.095.077 7.731 7.486 4.049 13.493 10.026 17.861 18.138 1.629 3.025 5.879 3.129 7.723.23 4.658-7.324 10.858-13.211 18.34-17.902 2.853-1.789 2.844-5.977-.079-7.649-8.21-4.696-14.452-10.675-18.7-17.984-1.684-2.9-5.919-2.923-7.633-.04z" fill="#fed402"/><path d="m425.105 363.089c-5.106 8.589-12.199 15.715-21.416 21.279-3.583 2.163-3.588 7.422.094 9.413 9.114 4.93 16.429 12.208 21.748 22.085 1.983 3.683 7.158 3.81 9.403.28 5.672-8.918 13.22-16.086 22.331-21.798 3.474-2.178 3.463-7.277-.096-9.313-9.996-5.718-17.597-12.998-22.769-21.897-2.052-3.531-7.208-3.559-9.295-.049z" fill="#fed402"/><path d="m400.864 60.838c-5.106 8.589-12.199 15.715-21.416 21.279-3.583 2.163-3.588 7.422.094 9.413 9.114 4.93 16.429 12.208 21.748 22.085 1.983 3.683 7.158 3.81 9.403.28 5.672-8.918 13.22-16.086 22.331-21.798 3.474-2.178 3.463-7.277-.096-9.313-9.996-5.718-17.596-12.998-22.769-21.897-2.052-3.532-7.208-3.56-9.295-.049z" fill="#fee97d"/></g></g><g><path d="m467.311 96.514h-5.851c-4.143 0-7.5 3.357-7.5 7.5s3.357 7.5 7.5 7.5h5.851c16.922 0 30.689 13.767 30.689 30.688v286.885c0 16.922-13.768 30.689-30.689 30.689h-421.622c-16.921.001-30.689-13.767-30.689-30.689v-230.002c0-4.143-3.357-7.5-7.5-7.5s-7.5 3.357-7.5 7.5v230.002c0 25.193 20.496 45.689 45.689 45.689h421.621c25.193 0 45.689-20.496 45.689-45.689v-286.884c.001-25.193-20.495-45.689-45.688-45.689z"/><path d="m7.5 174.623c4.143 0 7.5-3.357 7.5-7.5v-83.211c0-16.922 13.768-30.688 30.689-30.688h146.994c5.247 0 10.438 1.356 15.015 3.924l86.502 48.525c6.813 3.822 14.543 5.842 22.354 5.842h34.692c4.143 0 7.5-3.357 7.5-7.5s-3.357-7.5-7.5-7.5h-34.692c-5.246 0-10.438-1.356-15.016-3.924l-86.501-48.525c-6.812-3.821-14.541-5.842-22.354-5.842h-146.994c-25.193-.001-45.689 20.495-45.689 45.688v83.211c0 4.142 3.357 7.5 7.5 7.5z"/><path d="m208.617 161.696c15.17-6.392 31.28-9.632 47.883-9.632 17.183 0 33.82 3.47 49.451 10.313.979.429 2 .632 3.004.632 2.889 0 5.642-1.679 6.874-4.494 1.661-3.794-.067-8.217-3.862-9.878-17.539-7.679-36.2-11.572-55.467-11.572-18.613 0-36.684 3.637-53.707 10.808-3.817 1.608-5.607 6.007-4 9.824 1.608 3.815 6.005 5.606 9.824 3.999z"/><path d="m180.421 391.18c22.607 14.897 48.915 22.771 76.079 22.771 76.338 0 138.443-62.105 138.443-138.444 0-17.519-3.23-34.595-9.602-50.755-1.519-3.853-5.872-5.743-9.729-4.227-3.854 1.52-5.745 5.875-4.227 9.729 5.678 14.4 8.557 29.626 8.557 45.253 0 68.067-55.376 123.444-123.443 123.444-24.222 0-47.676-7.019-67.825-20.297-3.459-2.279-8.11-1.323-10.39 2.136s-1.322 8.111 2.137 10.39z"/><path d="m154.604 369.22c1.479 1.607 3.497 2.422 5.521 2.422 1.815 0 3.636-.655 5.076-1.98 3.049-2.805 3.246-7.55.441-10.598-21.014-22.837-32.586-52.511-32.586-83.557 0-18.317 3.923-35.954 11.658-52.418 1.762-3.749.15-8.216-3.599-9.978-3.748-1.76-8.216-.149-9.978 3.599-8.681 18.475-13.082 38.257-13.082 58.797.002 34.819 12.981 68.1 36.549 93.713z"/><path d="m256.5 383.952c59.796 0 108.443-48.647 108.443-108.443 0-8.895-1.092-17.761-3.245-26.354-1.007-4.019-5.077-6.456-9.099-5.452-4.018 1.008-6.459 5.081-5.452 9.099 1.855 7.401 2.796 15.041 2.796 22.707 0 51.524-41.919 93.443-93.443 93.443s-93.443-41.919-93.443-93.443c0-51.525 41.919-93.444 93.443-93.444 9.04 0 17.995 1.302 26.617 3.869 3.973 1.176 8.146-1.078 9.329-5.048 1.182-3.971-1.078-8.146-5.048-9.329-10.013-2.98-20.408-4.492-30.898-4.492-59.796 0-108.443 48.647-108.443 108.444 0 59.795 48.647 108.443 108.443 108.443z"/><path d="m350.29 146.492-101.12 99.147-13.559-14.503c-4.376-4.678-11.742-4.926-16.42-.551l-23.204 21.692c-2.267 2.12-3.571 4.995-3.676 8.096-.104 3.102 1.006 6.059 3.125 8.324l32.789 35.073c1.55 1.658 3.364 3.151 5.394 4.436 1.2.761 2.592 1.164 4.013 1.164h21.389c1.423 0 2.816-.405 4.019-1.167 1.659-1.054 3.184-2.257 4.528-3.575l41.876-41.059c2.957-2.9 3.004-7.648.104-10.606-2.901-2.959-7.649-3.002-10.606-.104l-41.876 41.06c-.157.153-.32.305-.49.452h-16.511c-.315-.271-.61-.553-.881-.843l-30.48-32.604 18.262-17.072 13.612 14.56c2.155 2.307 5.081 3.614 8.236 3.683 3.185.082 6.134-1.111 8.385-3.319l101.179-99.204 17.502 17.851-54.026 52.973c-2.957 2.9-3.004 7.648-.104 10.606 2.901 2.959 7.649 3.002 10.606.104l56.44-55.34c2.217-2.173 3.454-5.078 3.484-8.183.03-3.103-1.148-6.031-3.321-8.248l-22.237-22.68c-2.173-2.217-5.078-3.454-8.183-3.484-3.149-.009-6.032 1.149-8.249 3.321z"/><path d="m143.793 193.614c2.032 3.773 5.798 6.12 10.074 6.274.15.006.301.009.451.009 4.13 0 7.891-2.064 10.129-5.584 3.946-6.205 9.179-11.298 15.996-15.572 3.618-2.269 5.727-6.169 5.641-10.434-.086-4.22-2.322-7.988-5.98-10.08-7.137-4.083-12.351-9.069-15.938-15.242-2.142-3.687-5.976-5.899-10.255-5.921-.021 0-.041 0-.063 0-4.253 0-8.08 2.171-10.247 5.816-3.634 6.111-8.547 10.98-15.02 14.889-3.691 2.229-5.921 6.289-5.818 10.596.102 4.311 2.421 8.105 6.204 10.152 6.357 3.44 11.208 8.377 14.826 15.097zm12.7-43.068c0 .001-.001.003-.003.005.001-.001.002-.003.003-.005zm-2.657 4.063c3.851 5.389 8.769 10.103 14.691 14.079-5.463 3.942-10.152 8.508-14.01 13.638-3.799-5.803-8.521-10.621-14.107-14.394 5.273-3.764 9.767-8.224 13.426-13.323z"/><path d="m400.215 400.378c8.031 4.344 14.152 10.573 18.713 19.043 2.196 4.08 6.268 6.615 10.89 6.783.163.006.325.009.487.009 4.467 0 8.536-2.233 10.958-6.042 4.938-7.765 11.476-14.133 19.985-19.469 3.915-2.453 6.197-6.673 6.104-11.286-.092-4.56-2.507-8.631-6.46-10.892-8.945-5.117-15.491-11.384-20.009-19.156-2.313-3.981-6.457-6.372-11.082-6.396-.022 0-.045 0-.067 0-4.598 0-8.734 2.346-11.075 6.283-4.501 7.57-10.842 13.859-18.846 18.691-3.995 2.412-6.408 6.805-6.298 11.466.11 4.657 2.615 8.755 6.7 10.966zm29.509-30.551c5.154 7.822 12.13 14.519 20.801 19.967-8.059 5.482-14.791 12.045-20.073 19.567-5.137-8.501-11.851-15.34-20.017-20.392 7.814-5.204 14.283-11.624 19.289-19.142z"/><path d="m375.974 98.126c8.031 4.345 14.152 10.574 18.713 19.045 2.197 4.079 6.268 6.614 10.89 6.781.163.006.325.009.487.009 4.466 0 8.536-2.234 10.958-6.042 4.938-7.765 11.476-14.133 19.985-19.469 3.915-2.453 6.197-6.673 6.104-11.286-.092-4.56-2.507-8.631-6.46-10.892-8.945-5.117-15.491-11.384-20.009-19.156-2.313-3.981-6.457-6.372-11.082-6.396-4.591-.035-8.79 2.327-11.143 6.283-4.501 7.57-10.842 13.859-18.846 18.691-3.995 2.412-6.408 6.806-6.298 11.467.112 4.658 2.617 8.756 6.701 10.965zm29.508-30.551c5.154 7.822 12.13 14.519 20.801 19.967-8.059 5.482-14.792 12.046-20.073 19.567-5.137-8.5-11.851-15.338-20.017-20.391 7.815-5.205 14.284-11.625 19.289-19.143z"/></g></g></svg>