<svg enable-background="new 0 0 256 256" height="512" viewBox="0 0 256 256" width="512" xmlns="http://www.w3.org/2000/svg"><g id="Layer_42"><g><g><path d="m128 149.467c-7.167 0-13.935-1.779-19.901-4.902v7.03c0 5.683-3.232 10.874-8.329 13.387-6.884 3.394-12.894 6.106-22.012 8.401l-23.387 5.886c-7.234 1.821-12.444 8.135-12.859 15.583l-3.078 53.079c-.175 3.022 2.228 5.568 5.255 5.568h168.621c3.027 0 5.43-2.547 5.255-5.568l-3.078-53.079c-.415-7.448-5.625-13.761-12.859-15.583l-23.387-5.886c-12.396-3.12-22.144-8.466-22.017-8.404-5.096-2.513-8.323-7.702-8.323-13.384v-7.03c-5.966 3.123-12.734 4.902-19.901 4.902z" fill="#5290db"/></g><g><path d="m165.026 54.604c-2.825-2.962-7.417-3.235-10.637-.708-5.091 3.996-13.899 8.935-26.341 8.935-12.472 0-21.327-4.963-26.439-8.964-3.217-2.518-7.8-2.235-10.619.721l-.015.016c-3.961 4.154-6.171 9.673-6.171 15.413v36.253c0 23.758 19.438 43.197 43.197 43.197 23.758 0 43.197-19.439 43.197-43.197v-36.253c-.001-5.739-2.211-11.259-6.172-15.413z" fill="#f9d0b4"/></g><g><path d="m173.969 73.349c-.944 0-1.868.08-2.772.22v32.702c0 .974-.044 1.938-.109 2.897.94.151 1.898.251 2.881.251 9.96 0 18.035-8.074 18.035-18.035s-8.075-18.035-18.035-18.035z" fill="#f9d0b4"/></g><g><path d="m84.803 106.27c0-4.475 0-23.804 0-32.702-.904-.14-1.828-.22-2.772-.22-9.96 0-18.035 8.075-18.035 18.035s8.074 18.035 18.035 18.035c.983 0 1.94-.1 2.881-.251v-.001c-.064-.958-.109-1.922-.109-2.896z" fill="#f9d0b4"/></g><g><path d="m171.035 36.501c-1.447 0-2.701-1.116-2.72-2.562-.331-24.07-27.818-28.592-55.192-23.865-23.208 4.008-40.17 24.133-40.17 47.684v18.06c2.669-1.56 5.764-2.469 9.078-2.469.944 0 1.868.079 2.772.22v-3.551c0-5.74 2.21-11.259 6.171-15.413l.015-.016c2.819-2.956 7.402-3.239 10.619-.721 5.112 4.001 13.968 8.964 26.439 8.964 12.442 0 21.25-4.939 26.341-8.935 3.22-2.527 7.812-2.255 10.637.708 3.961 4.154 6.171 9.673 6.171 15.413v3.551c.904-.14 1.828-.22 2.772-.22 3.354 0 6.484.932 9.174 2.528 0-5.04 0-10.217 0-14.828.001-21.554-7.783-24.548-12.107-24.548z" fill="#5b5d60"/></g><g><path d="m99.776 164.98c-.798.394-1.584.777-2.365 1.153 4.525 12.525 16.553 21.542 30.589 21.542 14.02 0 26.039-8.997 30.575-21.501-1.53-.742-2.389-1.213-2.351-1.194-5.096-2.513-8.323-7.702-8.323-13.384v-7.03c-5.966 3.123-12.734 4.901-19.901 4.901-7.167 0-13.935-1.779-19.901-4.901v7.03c0 5.681-3.227 10.871-8.323 13.384z" fill="#f9d0b4"/></g><g><path d="m43.69 253.5h25.485v-20.159h-29.894l-.846 14.59c-.176 3.022 2.228 5.569 5.255 5.569z" fill="#f9d0b4"/></g><g><path d="m217.565 247.932-.846-14.59h-29.894v20.158h25.485c3.027 0 5.431-2.547 5.255-5.568z" fill="#f9d0b4"/></g><g><path d="m198.451 128.2c-3.1-.6-5.6-3-6.2-6.1 0-.1-.3-.1-.3 0-.6 3.1-3.1 5.5-6.2 6.1-.1 0-.1.2 0 .3 3.1.6 5.6 3 6.2 6.1 0 .1.3.1.3 0 .6-3.1 3.1-5.5 6.2-6.1.1-.1.1-.3 0-.3z" fill="#fc657e"/></g><g><path d="m35.251 149.2c4.5-.8 8-4.3 8.9-8.7 0-.2.4-.2.4 0 .9 4.4 4.4 7.9 8.9 8.7.2 0 .2.3 0 .4-4.5.8-8 4.3-8.9 8.7 0 .2-.4.2-.4 0-.9-4.4-4.4-7.9-8.9-8.7-.2-.1-.2-.4 0-.4z" fill="#70d6f9"/></g><g><circle cx="180.669" cy="3.4" fill="#70d6f9" r="3.4"/></g><g><path d="m198.269 32.5h2.3v2.3c0 1.8 1.4 3.2 3.2 3.2 1.7 0 3.2-1.4 3.2-3.1v-.1-2.3h2.3c1.8 0 3.2-1.4 3.2-3.2 0-1.7-1.4-3.2-3.1-3.2h-.1-2.3v-2.3c0-1.8-1.4-3.2-3.2-3.2-1.7 0-3.2 1.4-3.2 3.1v.1 2.3h-2.3c-1.8 0-3.2 1.4-3.2 3.2-.1 1.7 1.3 3.2 3.2 3.2-.1 0-.1 0 0 0z" fill="#87d147"/></g><g><circle cx="25.669" cy="181.6" fill="#f5c84c" r="3.4"/></g><g><path d="m212.311 256h-168.622c-2.128 0-4.186-.888-5.646-2.436-1.46-1.547-2.228-3.653-2.104-5.778l3.078-53.079c.478-8.582 6.404-15.763 14.745-17.863l23.387-5.886c9.157-2.305 15.162-5.086 21.516-8.219 4.212-2.077 6.935-6.452 6.935-11.145v-6.429c0-1.381 1.119-2.5 2.5-2.5s2.5 1.119 2.5 2.5v6.429c0 6.684-3.726 12.672-9.724 15.629-6.615 3.262-12.874 6.158-22.506 8.583l-23.387 5.886c-6.208 1.563-10.618 6.907-10.974 13.298l-3.079 53.084c-.044.768.222 1.498.749 2.057.528.559 1.242.867 2.01.867h168.621c.769 0 1.482-.308 2.01-.867.527-.559.793-1.289.749-2.056l-3.078-53.08c-.356-6.396-4.767-11.74-10.974-13.303l-23.387-5.886c-6.527-1.643-12.308-3.893-16.008-5.491-3.568-1.542-5.465-2.455-6.497-3.109l-.007.015c-5.994-2.956-9.718-8.943-9.718-15.626v-6.408c0-1.381 1.119-2.5 2.5-2.5s2.5 1.119 2.5 2.5v6.408c0 4.765 2.655 9.034 6.929 11.142.047.023.093.048.139.074.432.235 9.662 5.198 21.383 8.148l23.387 5.886c8.341 2.1 14.267 9.281 14.745 17.868l3.078 53.074c.124 2.124-.644 4.23-2.104 5.777-1.46 1.548-3.519 2.436-5.646 2.436z"/></g><g><path d="m186.825 253.999c-1.381 0-2.5-1.119-2.5-2.5v-43.103c0-1.381 1.119-2.5 2.5-2.5s2.5 1.119 2.5 2.5v43.103c0 1.38-1.119 2.5-2.5 2.5z"/></g><g><path d="m69.175 253.999c-1.381 0-2.5-1.119-2.5-2.5v-43.103c0-1.381 1.119-2.5 2.5-2.5s2.5 1.119 2.5 2.5v43.103c0 1.38-1.119 2.5-2.5 2.5z"/></g><g><path d="m149.153 101.55c-4.543 0-8.647-3.335-10.212-8.298-.415-1.316.316-2.721 1.633-3.136 1.318-.418 2.721.316 3.136 1.633.905 2.872 3.093 4.801 5.443 4.801s4.538-1.93 5.443-4.801c.415-1.317 1.819-2.05 3.136-1.633 1.317.415 2.048 1.819 1.633 3.136-1.565 4.963-5.669 8.298-10.212 8.298z"/></g><g><path d="m106.847 101.55c-4.543 0-8.647-3.335-10.212-8.298-.415-1.316.316-2.721 1.633-3.136 1.318-.418 2.72.316 3.136 1.633.905 2.872 3.093 4.801 5.443 4.801s4.538-1.93 5.443-4.801c.416-1.317 1.819-2.05 3.136-1.633 1.317.415 2.048 1.819 1.633 3.136-1.565 4.963-5.668 8.298-10.212 8.298z"/></g><g><path d="m141.101 125c-.788 0-1.563-.371-2.049-1.065-2.533-3.616-6.665-5.775-11.051-5.775s-8.518 2.159-11.051 5.775c-.792 1.131-2.352 1.405-3.482.613-1.131-.792-1.405-2.351-.613-3.482 3.468-4.95 9.13-7.906 15.146-7.906s11.678 2.956 15.146 7.906c.792 1.131.518 2.69-.613 3.482-.437.306-.938.452-1.433.452z"/></g><g><path d="m128 151.967c-25.197 0-45.697-20.5-45.697-45.697v-36.252c0-6.411 2.437-12.498 6.861-17.139 3.718-3.899 9.724-4.315 13.984-.98 4.916 3.847 13.226 8.433 24.899 8.433 11.648 0 19.914-4.569 24.797-8.402 4.265-3.35 10.28-2.941 13.99.948 4.425 4.641 6.862 10.728 6.862 17.139v36.252c.001 25.198-20.499 45.698-45.696 45.698zm-31.327-97.311c-1.423 0-2.828.56-3.875 1.658-3.548 3.722-5.495 8.583-5.495 13.704v36.252c0 22.44 18.256 40.697 40.697 40.697s40.697-18.256 40.697-40.697v-36.252c0-5.121-1.946-9.982-5.48-13.688-1.922-2.015-5.054-2.215-7.284-.466-5.503 4.32-14.808 9.469-27.884 9.469-13.098 0-22.445-5.164-27.98-9.496-1.012-.792-2.21-1.181-3.396-1.181z"/></g><g><path d="m173.969 111.918c-.76 0-1.535-.05-2.37-.153-1.37-.169-2.344-1.417-2.175-2.787s1.417-2.351 2.787-2.175c.63.078 1.205.115 1.757.115 8.566 0 15.535-6.969 15.535-15.535s-6.969-15.535-15.535-15.535c-.467 0-.951.023-1.438.07-1.379.132-2.596-.876-2.727-2.25s.876-2.595 2.25-2.727c.645-.062 1.289-.093 1.914-.093 11.323 0 20.535 9.212 20.535 20.535.001 11.324-9.21 20.535-20.533 20.535z"/></g><g><path d="m82.031 111.918c-11.323 0-20.535-9.212-20.535-20.535s9.212-20.535 20.535-20.535c.708 0 1.437.04 2.167.119 1.373.148 2.365 1.381 2.217 2.754s-1.384 2.367-2.754 2.217c-.553-.06-1.101-.09-1.63-.09-8.566 0-15.535 6.969-15.535 15.535s6.969 15.535 15.535 15.535c.527 0 1.073-.034 1.67-.105 1.373-.163 2.614.818 2.776 2.189s-.818 2.614-2.189 2.776c-.793.095-1.532.14-2.257.14z"/></g><g><path d="m183.143 77.563c-1.381 0-2.5-1.119-2.5-2.5v-14.015c0-14.011-3.501-22.047-9.607-22.047-2.84 0-5.182-2.255-5.221-5.027-.091-6.613-2.454-11.891-7.024-15.686-8.593-7.136-25.083-9.23-45.242-5.75-22.074 3.812-38.096 22.83-38.096 45.221v17.199c0 1.381-1.119 2.5-2.5 2.5s-2.5-1.119-2.5-2.5v-17.199c0-24.831 17.767-45.921 42.245-50.148 21.602-3.732 39.566-1.241 49.287 6.831 5.747 4.772 8.718 11.321 8.83 19.464.011.021.097.096.221.096 5.455 0 14.607 3.514 14.607 27.047v14.015c0 1.38-1.12 2.499-2.5 2.499z"/></g><g><path d="m128 190.174c-14.167 0-27.237-8.879-32.522-22.094-.513-1.282.111-2.737 1.393-3.25 1.283-.512 2.737.112 3.25 1.393 4.534 11.335 15.738 18.951 27.88 18.951 12.128 0 23.328-7.604 27.869-18.921.514-1.281 1.967-1.903 3.251-1.389 1.281.514 1.903 1.97 1.389 3.251-5.377 13.401-18.138 22.059-32.51 22.059z"/></g><g><path d="m68.063 235.841h-27.813c-1.381 0-2.5-1.119-2.5-2.5s1.119-2.5 2.5-2.5h27.813c1.381 0 2.5 1.119 2.5 2.5s-1.119 2.5-2.5 2.5z"/></g><g><path d="m215.792 235.841h-27.792c-1.381 0-2.5-1.119-2.5-2.5s1.119-2.5 2.5-2.5h27.792c1.381 0 2.5 1.119 2.5 2.5s-1.12 2.5-2.5 2.5z"/></g></g></g></svg>