<?xml version="1.0" encoding="UTF-8"?>
<svg xmlns="http://www.w3.org/2000/svg" xmlns:xlink="http://www.w3.org/1999/xlink" version="1.1" id="Capa_1" x="0px" y="0px" viewBox="0 0 511.941 511.941" style="enable-background:new 0 0 511.941 511.941;" xml:space="preserve" width="512" height="512">
<g>
	<path style="fill:#FADA88;" d="M193.246,458.504l-33.657-7.192l-14.472,7.192c1.996,12.923-3.521,24.41-7.941,31.209&#10;&#9;&#9;c-2.376,3.655-1.202,8.55,2.599,10.684l0.04,0.022c11.247,6.314,25.286,4.979,35.031-3.47&#10;&#9;&#9;c15.174-13.157,21.186-29.371,21.186-29.371L193.246,458.504z"/>
	<path style="fill:#F7EF87;" d="M504.44,142.431v15.41c0,24.85-20.15,45-45,45H52.5c-24.85,0-45-20.15-45-45v-15.41&#10;&#9;&#9;c0-24.86,20.15-45,45-45h406.94C484.29,97.431,504.44,117.571,504.44,142.431z"/>
	<path style="fill:#6FCE91;" d="M368.91,202.841H52.5c-24.85,0-45-20.15-45-45v-15.41c0-24.86,20.15-45,45-45h316.41&#10;&#9;&#9;C368.91,97.431,421.62,150.131,368.91,202.841z"/>
	<path style="fill:#F7EF87;" d="M404.823,272.274c0-0.005-0.001-0.01-0.001-0.016c-6.677-4.538-14.457-7.842-22.816-9.182&#10;&#9;&#9;l-80.998,9.66c-5.498,7.726-12.846,25.23-1.178,56.29c0.1,2.557,21.667,37.919,5.397,55.584l1.839,66.701l0,0&#10;&#9;&#9;c25.18,0,47.571-16.5,54.513-40.704c5.329-18.58,7.372-38.921,8.156-51.789c0.435-7.15,5.96-13.016,13.089-13.724&#10;&#9;&#9;c19.135-1.899,36.727-8.405,43.378-21.737C435.122,305.438,422.572,284.223,404.823,272.274z"/>
	
		<ellipse transform="matrix(0.7071 -0.7071 0.7071 0.7071 -102.765 323.2327)" style="fill:#FADA88;" cx="338.794" cy="285.665" rx="45.176" ry="45.176"/>
	<path style="fill:#F7EF87;" d="M155.748,458.504l-33.657-7.192l-14.472,7.192c1.997,12.923-3.521,24.41-7.941,31.209&#10;&#9;&#9;c-2.376,3.655-1.202,8.55,2.599,10.684l0.04,0.022c11.247,6.314,25.286,4.979,35.031-3.47&#10;&#9;&#9;c15.174-13.157,21.187-29.371,21.187-29.371L155.748,458.504z"/>
	<path style="fill:#FADA88;" d="M226.151,467.578c0,0,6.012,16.214,21.187,29.371c9.745,8.449,23.784,9.785,35.031,3.47l0.04-0.022&#10;&#9;&#9;c3.801-2.134,4.974-7.029,2.599-10.684c-4.419-6.799-9.937-18.286-7.941-31.209l-14.472-7.192l-33.657,7.192L226.151,467.578z"/>
	<path style="fill:#F7EF87;" d="M263.649,467.578c0,0,6.012,16.214,21.187,29.371c9.745,8.449,23.784,9.785,35.031,3.47l0.04-0.022&#10;&#9;&#9;c3.801-2.134,4.974-7.029,2.599-10.684c-4.419-6.799-9.937-18.286-7.941-31.209l-14.472-7.192l-33.657,7.192L263.649,467.578z"/>
	<path style="fill:#E18E80;" d="M322.35,433.682c-2.4,0.9-4.8,1.76-7.18,2.58c-23.42,8.11-45.87,12.94-66.92,15.44&#10;&#9;&#9;c-5.45,0.65-10.8,1.14-16.05,1.49c-21.55,1.43-41.38,0.49-58.96-1.69c-27.78-3.44-49.92-9.99-64.31-15.24&#10;&#9;&#9;c-3.7-1.35-6.88-2.61-9.52-3.71c6.42-38.4,32.21-70.24,66.98-85.11c13.63-5.84,28.64-9.07,44.4-9.07c15.77,0,30.79,3.23,44.42,9.07&#10;&#9;&#9;c13.33,5.71,25.34,13.91,35.44,24.01C307.16,387.962,318.58,409.552,322.35,433.682z"/>
	<g>
		<path style="fill:#D16641;" d="M322.35,433.682c-2.4,0.9-4.8,1.76-7.18,2.58H202.19c-37.7-28.67-23.14-61.12-8.08-80.52l7.57,2.27&#10;&#9;&#9;&#9;l7.46,2.23l46.07-12.8c13.33,5.71,25.34,13.91,35.44,24.01C307.16,387.962,318.58,409.552,322.35,433.682z"/>
	</g>
	<path style="fill:#C25935;" d="M216.061,436.262H108.93c-3.7-1.35-6.88-2.61-9.52-3.71c6.42-38.4,32.21-70.24,66.98-85.11&#10;&#9;&#9;l35.29,10.57c-6.522,20.227-3.724,39.272-2.97,40.78C201.351,413.312,207.479,424.82,216.061,436.262z"/>
	<path style="fill:#E18E80;" d="M255.21,347.442l-0.01,0.01l-21.82,43.63l-22.58,16.59l-12.09-8.88&#10;&#9;&#9;c-29.26-43.52,12.08-60.42,12.08-60.42C226.561,338.371,241.58,341.602,255.21,347.442z"/>
	<path style="fill:#D77858;" d="M198.71,398.792l-10.5-7.71l-21.82-43.64c13.63-5.84,28.64-9.07,44.4-9.07&#10;&#9;&#9;C210.79,338.371,192.47,364.862,198.71,398.792z"/>
	<g>
		<path style="fill:#D77858;" d="M255.97,436.262l-7.72,15.44c-5.45,0.65-10.8,1.14-16.05,1.49&#10;&#9;&#9;&#9;c-70.31-11.33-34.49-61.78-34.49-61.78l-0.01-0.33h35.68L255.97,436.262z"/>
	</g>
	<path style="fill:#D16641;" d="M232.2,453.192c-21.55,1.43-41.38,0.49-58.96-1.69l-7.62-15.24l22.59-45.18h9.47&#10;&#9;&#9;c0.066,0.73,0.741,7.133,1.03,7.71C202.685,420.648,215.691,438.717,232.2,453.192z"/>
	<path style="fill:#EAEAEC;" d="M331.26,439.392c0,4.12-1.47,7.98-4.01,11.08c-2.54,3.1-6.14,5.43-10.39,6.49l-10,2.5&#10;&#9;&#9;c-17.57,4.4-35.41,7.56-53.36,9.5c-52.49-0.17-39.43-35.35-39.43-35.35c31.2-0.26,62.38-4.2,92.79-11.79&#10;&#9;&#9;c1.7-0.42,3.39-0.62,5.04-0.62C322.281,421.202,331.26,429.082,331.26,439.392z"/>
	<path style="fill:#DCDADE;" d="M253.5,468.962c-46.32,5.01-93.41,1.84-138.78-9.5l-10-2.5c-8.49-2.12-14.4-9.33-14.4-17.57&#10;&#9;&#9;c0-10.31,8.99-18.19,19.36-18.19c1.66,0,3.35,0.2,5.04,0.62c33.187,8.289,66.862,12.081,99.35,11.79&#10;&#9;&#9;C222.71,445.482,235.38,457.472,253.5,468.962z"/>
</g>
<g>
	<path style="fill:none;stroke:#000000;stroke-width:15;stroke-linecap:round;stroke-linejoin:round;stroke-miterlimit:10;" d="&#10;&#9;&#9;M136.83,497.451c3.286,6.316,23.648,12.026,38.02-0.43c10.94-9.49,17.12-20.57,19.71-26.01"/>
	<path style="fill:none;stroke:#000000;stroke-width:15;stroke-linecap:round;stroke-linejoin:round;stroke-miterlimit:10;" d="&#10;&#9;&#9;M331.264,97.855H459.44c24.85,0,45,20.14,45,45v15.41c0,24.85-20.15,45-45,45H188.205"/>
	<path style="fill:none;stroke:#000000;stroke-width:15;stroke-linecap:round;stroke-linejoin:round;stroke-miterlimit:10;" d="&#10;&#9;&#9;M158.088,203.265H52.5c-24.85,0-45-20.15-45-45v-15.41c0-24.86,20.15-45,45-45h248.646"/>
	<path style="fill:none;stroke:#000000;stroke-width:15;stroke-linecap:round;stroke-linejoin:round;stroke-miterlimit:10;" d="&#10;&#9;&#9;M368.91,97.855c0,0,52.71,52.7,0,105.41"/>
	<g>
		<path style="fill:none;stroke:#000000;stroke-width:15;stroke-linecap:round;stroke-linejoin:round;stroke-miterlimit:10;" d="&#10;&#9;&#9;&#9;M30.088,7.5v60.185c0.951,0.114,30.118,0,30.118,0"/>
	</g>
	<g>
		<path style="fill:none;stroke:#000000;stroke-width:15;stroke-linecap:round;stroke-linejoin:round;stroke-miterlimit:10;" d="&#10;&#9;&#9;&#9;M278.559,7.5v60.185c0.951,0.114,30.118,0,30.118,0"/>
	</g>
	<g>
		
			<polyline style="fill:none;stroke:#000000;stroke-width:15;stroke-linecap:round;stroke-linejoin:round;stroke-miterlimit:10;" points="&#10;&#9;&#9;&#9;248.441,7.5 218.323,7.5 218.323,67.735 248.441,67.735 &#9;&#9;"/>
		
			<line style="fill:none;stroke:#000000;stroke-width:15;stroke-linecap:round;stroke-linejoin:round;stroke-miterlimit:10;" x1="246.22" y1="37.618" x2="218.323" y2="37.618"/>
	</g>
	<g>
		
			<polyline style="fill:none;stroke:#000000;stroke-width:15;stroke-linecap:round;stroke-linejoin:round;stroke-miterlimit:10;" points="&#10;&#9;&#9;&#9;120.441,7.5 90.323,7.5 90.323,67.735 120.441,67.735 &#9;&#9;"/>
		
			<line style="fill:none;stroke:#000000;stroke-width:15;stroke-linecap:round;stroke-linejoin:round;stroke-miterlimit:10;" x1="118.22" y1="37.618" x2="90.323" y2="37.618"/>
	</g>
	<g>
		<path style="fill:none;stroke:#000000;stroke-width:15;stroke-linecap:round;stroke-linejoin:round;stroke-miterlimit:10;" d="&#10;&#9;&#9;&#9;M150.559,7.5l18.102,59.331c0.379,1.215,1.893,1.203,2.258-0.018l17.287-59.203"/>
	</g>
	
		<line style="fill:none;stroke:#000000;stroke-width:15;stroke-linecap:round;stroke-linejoin:round;stroke-miterlimit:10;" x1="136.585" y1="127.294" x2="136.585" y2="139.294"/>
	
		<line style="fill:none;stroke:#000000;stroke-width:15;stroke-linecap:round;stroke-linejoin:round;stroke-miterlimit:10;" x1="261.482" y1="127.294" x2="261.482" y2="139.294"/>
	<g>
		<path style="fill:none;stroke:#000000;stroke-width:15;stroke-linecap:round;stroke-linejoin:round;stroke-miterlimit:10;" d="&#10;&#9;&#9;&#9;M199.215,146.449c0,7.983-6.472,14.455-14.456,14.455c-7.984,0-14.456-6.472-14.456-14.455"/>
		<path style="fill:none;stroke:#000000;stroke-width:15;stroke-linecap:round;stroke-linejoin:round;stroke-miterlimit:10;" d="&#10;&#9;&#9;&#9;M228.126,146.449c0,7.983-6.472,14.455-14.455,14.455c-7.984,0-14.456-6.472-14.456-14.455"/>
	</g>
	<path style="fill:none;stroke:#000000;stroke-width:15;stroke-linecap:round;stroke-linejoin:round;stroke-miterlimit:10;" d="&#10;&#9;&#9;M294.03,292.181c0,0,0,0,0,0.01c-1.14,9.27-0.12,21.53,5.8,37.26c0.1,2.56,21.67,37.92,5.4,55.58l0.13,4.58"/>
	<path style="fill:none;stroke:#000000;stroke-width:15;stroke-linecap:round;stroke-linejoin:round;stroke-miterlimit:10;" d="&#10;&#9;&#9;M378.18,263.961l3.83-0.46c8.36,1.34,16.14,4.64,22.81,9.18c0,0.01,0,0.01,0,0.02c17.75,11.95,30.3,33.16,21.38,51.08&#10;&#9;&#9;c-6.65,13.33-24.24,19.84-43.38,21.74c-7.13,0.7-12.65,6.57-13.09,13.72c-0.78,12.87-2.82,33.21-8.15,51.79&#10;&#9;&#9;c-4.697,16.379-16.618,29.552-32.14,36.14"/>
	
		<ellipse transform="matrix(0.7071 -0.7071 0.7071 0.7071 -103.0645 323.3568)" style="fill:none;stroke:#000000;stroke-width:15;stroke-linecap:round;stroke-linejoin:round;stroke-miterlimit:10;" cx="338.794" cy="286.088" rx="45.176" ry="45.176"/>
	<path style="fill:none;stroke:#000000;stroke-width:15;stroke-linecap:round;stroke-linejoin:round;stroke-miterlimit:10;" d="&#10;&#9;&#9;M353.853,292.324c0-7.602-6.163-13.765-13.765-13.765c-7.602,0-13.765,6.163-13.765,13.765"/>
	<g>
		<path style="fill:none;stroke:#000000;stroke-width:15;stroke-linecap:round;stroke-linejoin:round;stroke-miterlimit:10;" d="&#10;&#9;&#9;&#9;M368.912,7.5v41.449c0,7.058,3.779,11.811,10.2,15.611c3.127,1.851,7.076,3.169,11.984,3.175c4.25,0.005,7.803-0.906,10.74-2.277&#10;&#9;&#9;&#9;c7.482-3.491,12.253-8.792,12.253-16.553V7.5"/>
	</g>
	<g>
		
			<line style="fill:none;stroke:#000000;stroke-width:15;stroke-linecap:round;stroke-linejoin:round;stroke-miterlimit:10;" x1="444.206" y1="7.5" x2="444.206" y2="67.735"/>
		<path style="fill:none;stroke:#000000;stroke-width:15;stroke-linecap:round;stroke-linejoin:round;stroke-miterlimit:10;" d="&#10;&#9;&#9;&#9;M481.853,24.498c0,9.388-8.769,16.998-19.132,16.998c-5.14,0-18.386,0.075-18.386,0.075s-0.083-12.341-0.083-17.073&#10;&#9;&#9;&#9;c0-3.886-0.046-16.998-0.046-16.998s12.442,0,18.515,0C473.084,7.5,481.853,15.11,481.853,24.498z"/>
	</g>
	<path style="fill:none;stroke:#000000;stroke-width:15;stroke-linecap:round;stroke-linejoin:round;stroke-miterlimit:10;" d="&#10;&#9;&#9;M108.71,458.04l-1.09,0.54c2,12.92-3.52,24.41-7.94,31.21c-2.519,3.863-0.922,8.919,2.64,10.7c11.24,6.32,25.28,4.98,35.03-3.47&#10;&#9;&#9;c14.09-12.21,20.29-27.08,21.1-29.13"/>
	<path style="fill:none;stroke:#000000;stroke-width:15;stroke-linecap:round;stroke-linejoin:round;stroke-miterlimit:10;" d="&#10;&#9;&#9;M227.61,470.991c2.58,5.43,8.77,16.53,19.73,26.03c14.416,12.506,34.755,6.704,38.02,0.43"/>
	<path style="fill:none;stroke:#000000;stroke-width:15;stroke-linecap:round;stroke-linejoin:round;stroke-miterlimit:10;" d="&#10;&#9;&#9;M263.71,467.81c4.213,10.754,14.21,23.95,21.65,29.64c8.924,7.4,21.363,9.613,34.55,3.02c3.8-2.13,4.97-7.03,2.6-10.68&#10;&#9;&#9;c-4.42-6.8-9.94-18.29-7.95-31.21l-1.29-0.64"/>
	<path style="fill:none;stroke:#000000;stroke-width:15;stroke-linecap:round;stroke-linejoin:round;stroke-miterlimit:10;" d="&#10;&#9;&#9;M101.46,423.01c12.58-48.64,56.76-84.57,109.33-84.57c31.19,0,59.43,12.64,79.87,33.08c14.02,14.02,24.37,31.71,29.48,51.5"/>
	<g>
		<g>
			<g>
				<g>
					
						<polyline style="fill:none;stroke:#000000;stroke-width:15;stroke-linecap:round;stroke-linejoin:round;stroke-miterlimit:10;" points="&#10;&#9;&#9;&#9;&#9;&#9;&#9;168.09,431.391 172.28,423.081 188.21,391.5 210.79,391.5 233.38,391.5 249.31,423.091 253.5,431.391 &#9;&#9;&#9;&#9;&#9;"/>
				</g>
			</g>
		</g>
		<g>
			<g>
				<g>
					
						<polyline style="fill:none;stroke:#000000;stroke-width:15;stroke-linecap:round;stroke-linejoin:round;stroke-miterlimit:10;" points="&#10;&#9;&#9;&#9;&#9;&#9;&#9;168.09,431.391 172.28,423.01 188.21,391.151 166.39,347.51 &#9;&#9;&#9;&#9;&#9;"/>
				</g>
			</g>
		</g>
		<g>
			<g>
				<g>
					
						<line style="fill:none;stroke:#000000;stroke-width:15;stroke-linecap:round;stroke-linejoin:round;stroke-miterlimit:10;" x1="233.38" y1="391.151" x2="255.2" y2="347.521"/>
					
						<line style="fill:none;stroke:#000000;stroke-width:15;stroke-linecap:round;stroke-linejoin:round;stroke-miterlimit:10;" x1="166.39" y1="347.511" x2="188.21" y2="391.151"/>
				</g>
			</g>
		</g>
		<g>
			<g>
				<g>
					
						<polyline style="fill:none;stroke:#000000;stroke-width:15;stroke-linecap:round;stroke-linejoin:round;stroke-miterlimit:10;" points="&#10;&#9;&#9;&#9;&#9;&#9;&#9;255.2,347.521 233.38,391.151 249.31,423.021 253.5,431.391 &#9;&#9;&#9;&#9;&#9;"/>
				</g>
			</g>
		</g>
	</g>
	<path style="fill:none;stroke:#000000;stroke-width:15;stroke-linecap:round;stroke-linejoin:round;stroke-miterlimit:10;" d="&#10;&#9;&#9;M329.44,447.171c-4.578,9.157-12.702,9.901-22.57,12.37c-14.24,3.56-28.66,6.32-43.16,8.27c-11.99,1.61-24.03,2.67-36.1,3.18&#10;&#9;&#9;c-11.01,0.47-22.03,0.47-33.05,0.02c-12.07-0.49-24.12-1.53-36.11-3.12c-23.34-3.112-38.554-7.054-53.72-10.85&#10;&#9;&#9;c-8.5-2.12-14.41-9.33-14.41-17.57c0-11.943,12.067-20.645,24.4-17.58c17.58,4.4,35.42,7.56,53.37,9.5&#10;&#9;&#9;c28.43,3.068,56.98,3.065,85.41,0c50.917-5.503,54.591-13.773,66.64-8.37C329.968,427.38,333.898,438.254,329.44,447.171z"/>
</g>















</svg>
