<?xml version="1.0" encoding="UTF-8" standalone="no"?>
<!-- Created with Inkscape (http://www.inkscape.org/) -->

<svg
   version="1.1"
   id="svg453"
   xml:space="preserve"
   width="682.66669"
   height="682.66669"
   viewBox="0 0 682.66669 682.66669"
   xmlns="http://www.w3.org/2000/svg"
   xmlns:svg="http://www.w3.org/2000/svg"><defs
     id="defs457"><clipPath
       clipPathUnits="userSpaceOnUse"
       id="clipPath467"><path
         d="M 0,512 H 512 V 0 H 0 Z"
         id="path465" /></clipPath></defs><g
     id="g459"
     transform="matrix(1.3333333,0,0,-1.3333333,0,682.66667)"><g
       id="g461"><g
         id="g463"
         clip-path="url(#clipPath467)"><g
           id="g469"
           transform="translate(478,118.1032)"><path
             d="M 0,0 V 96 H -109.517 C -151.986,96 -192.615,78.662 -222,48 v 0 0 c -29.385,30.662 -70.014,48 -112.483,48 H -444 V 0 Z"
             style="fill:#ffe7b3;fill-opacity:1;fill-rule:nonzero;stroke:none"
             id="path471" /></g><g
           id="g473"
           transform="translate(10,94.1032)"><path
             d="m 0,0 v 0 c 0,-13.255 10.745,-24 24,-24 h 181.794 c 0,-22.205 18.001,-40.206 40.206,-40.206 22.205,0 40.206,18.001 40.206,40.206 H 468 c 13.255,0 24,10.745 24,24 v 0 c 0,13.255 -10.745,24 -24,24 H 24 C 10.745,24 0,13.255 0,0"
             style="fill:#60b7ff;fill-opacity:1;fill-rule:nonzero;stroke:none"
             id="path475" /></g><g
           id="g477"
           transform="translate(10,94.1032)"><path
             d="m 0,0 v 0 c 0,-13.255 10.745,-24 24,-24 h 181.794 c 0,-22.205 18.001,-40.206 40.206,-40.206 22.205,0 40.206,18.001 40.206,40.206 H 468 c 13.255,0 24,10.745 24,24 v 0 c 0,13.255 -10.745,24 -24,24 H 24 C 10.745,24 0,13.255 0,0 Z"
             style="fill:none;stroke:#000000;stroke-width:20;stroke-linecap:round;stroke-linejoin:round;stroke-miterlimit:10;stroke-dasharray:none;stroke-opacity:1"
             id="path479" /></g><g
           id="g481"
           transform="translate(34,118.1032)"><path
             d="M 0,0 V 96 H 109.517 C 151.986,96 192.615,78.662 222,48 v 0"
             style="fill:none;stroke:#000000;stroke-width:20;stroke-linecap:round;stroke-linejoin:round;stroke-miterlimit:10;stroke-dasharray:none;stroke-opacity:1"
             id="path483" /></g><g
           id="g485"
           transform="translate(34,166.1032)"><path
             d="M 0,0 H 109.517 C 151.986,0 192.615,-17.338 222,-48 v 0"
             style="fill:none;stroke:#000000;stroke-width:20;stroke-linecap:round;stroke-linejoin:round;stroke-miterlimit:10;stroke-dasharray:none;stroke-opacity:1"
             id="path487" /></g><g
           id="g489"
           transform="translate(478,118.1032)"><path
             d="M 0,0 V 96 H -109.517 C -151.986,96 -192.615,78.662 -222,48 v 0"
             style="fill:none;stroke:#000000;stroke-width:20;stroke-linecap:round;stroke-linejoin:round;stroke-miterlimit:10;stroke-dasharray:none;stroke-opacity:1"
             id="path491" /></g><g
           id="g493"
           transform="translate(323.9536,159.6043)"><path
             d="m 0,0 c -25.624,-7.643 -49.102,-21.83 -67.954,-41.501 v 0"
             style="fill:none;stroke:#000000;stroke-width:20;stroke-linecap:round;stroke-linejoin:round;stroke-miterlimit:10;stroke-dasharray:none;stroke-opacity:1"
             id="path495" /></g><g
           id="g497"
           transform="translate(478,166.1032)"><path
             d="M 0,0 H -64.517"
             style="fill:none;stroke:#000000;stroke-width:20;stroke-linecap:round;stroke-linejoin:round;stroke-miterlimit:10;stroke-dasharray:none;stroke-opacity:1"
             id="path499" /></g><g
           id="g501"
           transform="translate(256,166.1032)"><path
             d="M 0,0 V -48"
             style="fill:none;stroke:#000000;stroke-width:20;stroke-linecap:round;stroke-linejoin:round;stroke-miterlimit:10;stroke-dasharray:none;stroke-opacity:1"
             id="path503" /></g><g
           id="g505"
           transform="translate(432.4087,363.3472)"><path
             d="m 0,0 v 0 c 0,29.133 -23.617,52.75 -52.75,52.75 v 0 C -23.617,52.75 0,76.367 0,105.5 v 0 C 0,76.367 23.617,52.75 52.75,52.75 v 0 C 23.617,52.75 0,29.133 0,0"
             style="fill:#ffce62;fill-opacity:1;fill-rule:nonzero;stroke:none"
             id="path507" /></g><g
           id="g509"
           transform="translate(432.4087,363.3472)"><path
             d="m 0,0 v 0 c 0,29.133 -23.617,52.75 -52.75,52.75 v 0 C -23.617,52.75 0,76.367 0,105.5 v 0 C 0,76.367 23.617,52.75 52.75,52.75 v 0 C 23.617,52.75 0,29.133 0,0 Z"
             style="fill:none;stroke:#000000;stroke-width:20;stroke-linecap:round;stroke-linejoin:round;stroke-miterlimit:10;stroke-dasharray:none;stroke-opacity:1"
             id="path511" /></g><g
           id="g513"
           transform="translate(145,276.1032)"><path
             d="m 0,0 v 0 c 0,29.133 -23.617,52.75 -52.75,52.75 v 0 C -23.617,52.75 0,76.367 0,105.5 v 0 C 0,76.367 23.617,52.75 52.75,52.75 v 0 C 23.617,52.75 0,29.133 0,0"
             style="fill:#ffce62;fill-opacity:1;fill-rule:nonzero;stroke:none"
             id="path515" /></g><g
           id="g517"
           transform="translate(145,276.1032)"><path
             d="m 0,0 v 0 c 0,29.133 -23.617,52.75 -52.75,52.75 v 0 C -23.617,52.75 0,76.367 0,105.5 v 0 C 0,76.367 23.617,52.75 52.75,52.75 v 0 C 23.617,52.75 0,29.133 0,0 Z"
             style="fill:none;stroke:#000000;stroke-width:20;stroke-linecap:round;stroke-linejoin:round;stroke-miterlimit:10;stroke-dasharray:none;stroke-opacity:1"
             id="path519" /></g><g
           id="g521"
           transform="translate(235.6667,482.1032)"><path
             d="M 0,0 V -82"
             style="fill:none;stroke:#000000;stroke-width:20;stroke-linecap:round;stroke-linejoin:round;stroke-miterlimit:10;stroke-dasharray:none;stroke-opacity:1"
             id="path523" /></g><g
           id="g525"
           transform="translate(308.3333,342.4365)"><path
             d="M 0,0 V -82"
             style="fill:none;stroke:#000000;stroke-width:20;stroke-linecap:round;stroke-linejoin:round;stroke-miterlimit:10;stroke-dasharray:none;stroke-opacity:1"
             id="path527" /></g><g
           id="g529"
           transform="translate(308.3333,400.1032)"><path
             d="M 0,0 V 0"
             style="fill:none;stroke:#000000;stroke-width:20;stroke-linecap:round;stroke-linejoin:round;stroke-miterlimit:10;stroke-dasharray:none;stroke-opacity:1"
             id="path531" /></g><g
           id="g533"
           transform="translate(368.483,166.1032)"><path
             d="M 0,0 V 0"
             style="fill:none;stroke:#000000;stroke-width:20;stroke-linecap:round;stroke-linejoin:round;stroke-miterlimit:10;stroke-dasharray:none;stroke-opacity:1"
             id="path535" /></g></g></g></g></svg>
